<?xml version="1.0" encoding="utf-8" ?>
<svg xmlns="http://www.w3.org/2000/svg" xmlns:ev="http://www.w3.org/2001/xml-events" xmlns:xlink="http://www.w3.org/1999/xlink" baseProfile="full" fill="none" height="1000" version="1.1" viewBox="0 0 1000 1000" width="1000">
  <defs/>
  <g>
    <circle cx="25.0" cy="25.0" fill="black" r="3.875"/>
    <circle cx="25.0" cy="75.0" fill="black" r="5.25"/>
    <circle cx="25.0" cy="125.0" fill="black" r="6.625"/>
    <circle cx="25.0" cy="175.0" fill="black" r="8.0"/>
    <circle cx="25.0" cy="225.0" fill="black" r="9.375"/>
    <circle cx="25.0" cy="275.0" fill="black" r="10.75"/>
    <circle cx="25.0" cy="325.0" fill="black" r="12.125"/>
    <circle cx="25.0" cy="375.0" fill="black" r="13.5"/>
    <circle cx="25.0" cy="425.0" fill="black" r="14.875"/>
    <circle cx="25.0" cy="475.0" fill="black" r="16.25"/>
    <circle cx="25.0" cy="525.0" fill="black" r="17.625"/>
    <circle cx="25.0" cy="575.0" fill="black" r="19.0"/>
    <circle cx="25.0" cy="625.0" fill="black" r="20.375"/>
    <circle cx="25.0" cy="675.0" fill="black" r="21.75"/>
    <circle cx="25.0" cy="725.0" fill="black" r="23.125"/>
    <circle cx="25.0" cy="775.0" fill="black" r="24.5"/>
    <circle cx="25.0" cy="825.0" fill="black" r="25.875"/>
    <circle cx="25.0" cy="875.0" fill="black" r="27.25"/>
    <circle cx="25.0" cy="925.0" fill="black" r="28.625"/>
    <circle cx="25.0" cy="975.0" fill="black" r="30.0"/>
    <circle cx="75.0" cy="25.0" fill="black" r="3.875"/>
    <circle cx="75.0" cy="75.0" fill="black" r="5.25"/>
    <circle cx="75.0" cy="125.0" fill="black" r="6.625"/>
    <circle cx="75.0" cy="175.0" fill="black" r="8.0"/>
    <circle cx="75.0" cy="225.0" fill="black" r="9.375"/>
    <circle cx="75.0" cy="275.0" fill="black" r="10.75"/>
    <circle cx="75.0" cy="325.0" fill="black" r="12.125"/>
    <circle cx="75.0" cy="375.0" fill="black" r="13.5"/>
    <circle cx="75.0" cy="425.0" fill="black" r="14.875"/>
    <circle cx="75.0" cy="475.0" fill="black" r="16.25"/>
    <circle cx="75.0" cy="525.0" fill="black" r="17.625"/>
    <circle cx="75.0" cy="575.0" fill="black" r="19.0"/>
    <circle cx="75.0" cy="625.0" fill="black" r="20.375"/>
    <circle cx="75.0" cy="675.0" fill="black" r="21.75"/>
    <circle cx="75.0" cy="725.0" fill="black" r="23.125"/>
    <circle cx="75.0" cy="775.0" fill="black" r="24.5"/>
    <circle cx="75.0" cy="825.0" fill="black" r="25.875"/>
    <circle cx="75.0" cy="875.0" fill="black" r="27.25"/>
    <circle cx="75.0" cy="925.0" fill="black" r="28.625"/>
    <circle cx="75.0" cy="975.0" fill="black" r="30.0"/>
    <circle cx="125.0" cy="25.0" fill="black" r="3.875"/>
    <circle cx="125.0" cy="75.0" fill="black" r="5.25"/>
    <circle cx="125.0" cy="125.0" fill="black" r="6.625"/>
    <circle cx="125.0" cy="175.0" fill="black" r="8.0"/>
    <circle cx="125.0" cy="225.0" fill="black" r="9.375"/>
    <circle cx="125.0" cy="275.0" fill="black" r="10.75"/>
    <circle cx="125.0" cy="325.0" fill="black" r="12.125"/>
    <circle cx="125.0" cy="375.0" fill="black" r="13.5"/>
    <circle cx="125.0" cy="425.0" fill="black" r="14.875"/>
    <circle cx="125.0" cy="475.0" fill="black" r="16.25"/>
    <circle cx="125.0" cy="525.0" fill="black" r="17.625"/>
    <circle cx="125.0" cy="575.0" fill="black" r="19.0"/>
    <circle cx="125.0" cy="625.0" fill="black" r="20.375"/>
    <circle cx="125.0" cy="675.0" fill="black" r="21.75"/>
    <circle cx="125.0" cy="725.0" fill="black" r="23.125"/>
    <circle cx="125.0" cy="775.0" fill="black" r="24.5"/>
    <circle cx="125.0" cy="825.0" fill="black" r="25.875"/>
    <circle cx="125.0" cy="875.0" fill="black" r="27.25"/>
    <circle cx="125.0" cy="925.0" fill="black" r="28.625"/>
    <circle cx="125.0" cy="975.0" fill="black" r="30.0"/>
    <circle cx="175.0" cy="25.0" fill="black" r="3.875"/>
    <circle cx="175.0" cy="75.0" fill="black" r="5.25"/>
    <circle cx="175.0" cy="125.0" fill="black" r="6.625"/>
    <circle cx="175.0" cy="175.0" fill="black" r="8.0"/>
    <circle cx="175.0" cy="225.0" fill="black" r="9.375"/>
    <circle cx="175.0" cy="275.0" fill="black" r="10.75"/>
    <circle cx="175.0" cy="325.0" fill="black" r="12.125"/>
    <circle cx="175.0" cy="375.0" fill="black" r="13.5"/>
    <circle cx="175.0" cy="425.0" fill="black" r="14.875"/>
    <circle cx="175.0" cy="475.0" fill="black" r="16.25"/>
    <circle cx="175.0" cy="525.0" fill="black" r="17.625"/>
    <circle cx="175.0" cy="575.0" fill="black" r="19.0"/>
    <circle cx="175.0" cy="625.0" fill="black" r="20.375"/>
    <circle cx="175.0" cy="675.0" fill="black" r="21.75"/>
    <circle cx="175.0" cy="725.0" fill="black" r="23.125"/>
    <circle cx="175.0" cy="775.0" fill="black" r="24.5"/>
    <circle cx="175.0" cy="825.0" fill="black" r="25.875"/>
    <circle cx="175.0" cy="875.0" fill="black" r="27.25"/>
    <circle cx="175.0" cy="925.0" fill="black" r="28.625"/>
    <circle cx="175.0" cy="975.0" fill="black" r="30.0"/>
    <circle cx="225.0" cy="25.0" fill="black" r="3.875"/>
    <circle cx="225.0" cy="75.0" fill="black" r="5.25"/>
    <circle cx="225.0" cy="125.0" fill="black" r="6.625"/>
    <circle cx="225.0" cy="175.0" fill="black" r="8.0"/>
    <circle cx="225.0" cy="225.0" fill="black" r="9.375"/>
    <circle cx="225.0" cy="275.0" fill="black" r="10.75"/>
    <circle cx="225.0" cy="325.0" fill="black" r="12.125"/>
    <circle cx="225.0" cy="375.0" fill="black" r="13.5"/>
    <circle cx="225.0" cy="425.0" fill="black" r="14.875"/>
    <circle cx="225.0" cy="475.0" fill="black" r="16.25"/>
    <circle cx="225.0" cy="525.0" fill="black" r="17.625"/>
    <circle cx="225.0" cy="575.0" fill="black" r="19.0"/>
    <circle cx="225.0" cy="625.0" fill="black" r="20.375"/>
    <circle cx="225.0" cy="675.0" fill="black" r="21.75"/>
    <circle cx="225.0" cy="725.0" fill="black" r="23.125"/>
    <circle cx="225.0" cy="775.0" fill="black" r="24.5"/>
    <circle cx="225.0" cy="825.0" fill="black" r="25.875"/>
    <circle cx="225.0" cy="875.0" fill="black" r="27.25"/>
    <circle cx="225.0" cy="925.0" fill="black" r="28.625"/>
    <circle cx="225.0" cy="975.0" fill="black" r="30.0"/>
    <circle cx="275.0" cy="25.0" fill="black" r="3.875"/>
    <circle cx="275.0" cy="75.0" fill="black" r="5.25"/>
    <circle cx="275.0" cy="125.0" fill="black" r="6.625"/>
    <circle cx="275.0" cy="175.0" fill="black" r="8.0"/>
    <circle cx="275.0" cy="225.0" fill="black" r="9.375"/>
    <circle cx="275.0" cy="275.0" fill="black" r="10.75"/>
    <circle cx="275.0" cy="325.0" fill="black" r="12.125"/>
    <circle cx="275.0" cy="375.0" fill="black" r="13.5"/>
    <circle cx="275.0" cy="425.0" fill="black" r="14.875"/>
    <circle cx="275.0" cy="475.0" fill="black" r="16.25"/>
    <circle cx="275.0" cy="525.0" fill="black" r="17.625"/>
    <circle cx="275.0" cy="575.0" fill="black" r="19.0"/>
    <circle cx="275.0" cy="625.0" fill="black" r="20.375"/>
    <circle cx="275.0" cy="675.0" fill="black" r="21.75"/>
    <circle cx="275.0" cy="725.0" fill="black" r="23.125"/>
    <circle cx="275.0" cy="775.0" fill="black" r="24.5"/>
    <circle cx="275.0" cy="825.0" fill="black" r="25.875"/>
    <circle cx="275.0" cy="875.0" fill="black" r="27.25"/>
    <circle cx="275.0" cy="925.0" fill="black" r="28.625"/>
    <circle cx="275.0" cy="975.0" fill="black" r="30.0"/>
    <circle cx="325.0" cy="25.0" fill="black" r="3.875"/>
    <circle cx="325.0" cy="75.0" fill="black" r="5.25"/>
    <circle cx="325.0" cy="125.0" fill="black" r="6.625"/>
    <circle cx="325.0" cy="175.0" fill="black" r="8.0"/>
    <circle cx="325.0" cy="225.0" fill="black" r="9.375"/>
    <circle cx="325.0" cy="275.0" fill="black" r="10.75"/>
    <circle cx="325.0" cy="325.0" fill="black" r="12.125"/>
    <circle cx="325.0" cy="375.0" fill="black" r="13.5"/>
    <circle cx="325.0" cy="425.0" fill="black" r="14.875"/>
    <circle cx="325.0" cy="475.0" fill="black" r="16.25"/>
    <circle cx="325.0" cy="525.0" fill="black" r="17.625"/>
    <circle cx="325.0" cy="575.0" fill="black" r="19.0"/>
    <circle cx="325.0" cy="625.0" fill="black" r="20.375"/>
    <circle cx="325.0" cy="675.0" fill="black" r="21.75"/>
    <circle cx="325.0" cy="725.0" fill="black" r="23.125"/>
    <circle cx="325.0" cy="775.0" fill="black" r="24.5"/>
    <circle cx="325.0" cy="825.0" fill="black" r="25.875"/>
    <circle cx="325.0" cy="875.0" fill="black" r="27.25"/>
    <circle cx="325.0" cy="925.0" fill="black" r="28.625"/>
    <circle cx="325.0" cy="975.0" fill="black" r="30.0"/>
    <circle cx="375.0" cy="25.0" fill="black" r="3.875"/>
    <circle cx="375.0" cy="75.0" fill="black" r="5.25"/>
    <circle cx="375.0" cy="125.0" fill="black" r="6.625"/>
    <circle cx="375.0" cy="175.0" fill="black" r="8.0"/>
    <circle cx="375.0" cy="225.0" fill="black" r="9.375"/>
    <circle cx="375.0" cy="275.0" fill="black" r="10.75"/>
    <circle cx="375.0" cy="325.0" fill="black" r="12.125"/>
    <circle cx="375.0" cy="375.0" fill="black" r="13.5"/>
    <circle cx="375.0" cy="425.0" fill="black" r="14.875"/>
    <circle cx="375.0" cy="475.0" fill="black" r="16.25"/>
    <circle cx="375.0" cy="525.0" fill="black" r="17.625"/>
    <circle cx="375.0" cy="575.0" fill="black" r="19.0"/>
    <circle cx="375.0" cy="625.0" fill="black" r="20.375"/>
    <circle cx="375.0" cy="675.0" fill="black" r="21.75"/>
    <circle cx="375.0" cy="725.0" fill="black" r="23.125"/>
    <circle cx="375.0" cy="775.0" fill="black" r="24.5"/>
    <circle cx="375.0" cy="825.0" fill="black" r="25.875"/>
    <circle cx="375.0" cy="875.0" fill="black" r="27.25"/>
    <circle cx="375.0" cy="925.0" fill="black" r="28.625"/>
    <circle cx="375.0" cy="975.0" fill="black" r="30.0"/>
    <circle cx="425.0" cy="25.0" fill="black" r="3.875"/>
    <circle cx="425.0" cy="75.0" fill="black" r="5.25"/>
    <circle cx="425.0" cy="125.0" fill="black" r="6.625"/>
    <circle cx="425.0" cy="175.0" fill="black" r="8.0"/>
    <circle cx="425.0" cy="225.0" fill="black" r="9.375"/>
    <circle cx="425.0" cy="275.0" fill="black" r="10.75"/>
    <circle cx="425.0" cy="325.0" fill="black" r="12.125"/>
    <circle cx="425.0" cy="375.0" fill="black" r="13.5"/>
    <circle cx="425.0" cy="425.0" fill="black" r="14.875"/>
    <circle cx="425.0" cy="475.0" fill="black" r="16.25"/>
    <circle cx="425.0" cy="525.0" fill="black" r="17.625"/>
    <circle cx="425.0" cy="575.0" fill="black" r="19.0"/>
    <circle cx="425.0" cy="625.0" fill="black" r="20.375"/>
    <circle cx="425.0" cy="675.0" fill="black" r="21.75"/>
    <circle cx="425.0" cy="725.0" fill="black" r="23.125"/>
    <circle cx="425.0" cy="775.0" fill="black" r="24.5"/>
    <circle cx="425.0" cy="825.0" fill="black" r="25.875"/>
    <circle cx="425.0" cy="875.0" fill="black" r="27.25"/>
    <circle cx="425.0" cy="925.0" fill="black" r="28.625"/>
    <circle cx="425.0" cy="975.0" fill="black" r="30.0"/>
    <circle cx="475.0" cy="25.0" fill="black" r="3.875"/>
    <circle cx="475.0" cy="75.0" fill="black" r="5.25"/>
    <circle cx="475.0" cy="125.0" fill="black" r="6.625"/>
    <circle cx="475.0" cy="175.0" fill="black" r="8.0"/>
    <circle cx="475.0" cy="225.0" fill="black" r="9.375"/>
    <circle cx="475.0" cy="275.0" fill="black" r="10.75"/>
    <circle cx="475.0" cy="325.0" fill="black" r="12.125"/>
    <circle cx="475.0" cy="375.0" fill="black" r="13.5"/>
    <circle cx="475.0" cy="425.0" fill="black" r="14.875"/>
    <circle cx="475.0" cy="475.0" fill="black" r="16.25"/>
    <circle cx="475.0" cy="525.0" fill="black" r="17.625"/>
    <circle cx="475.0" cy="575.0" fill="black" r="19.0"/>
    <circle cx="475.0" cy="625.0" fill="black" r="20.375"/>
    <circle cx="475.0" cy="675.0" fill="black" r="21.75"/>
    <circle cx="475.0" cy="725.0" fill="black" r="23.125"/>
    <circle cx="475.0" cy="775.0" fill="black" r="24.5"/>
    <circle cx="475.0" cy="825.0" fill="black" r="25.875"/>
    <circle cx="475.0" cy="875.0" fill="black" r="27.25"/>
    <circle cx="475.0" cy="925.0" fill="black" r="28.625"/>
    <circle cx="475.0" cy="975.0" fill="black" r="30.0"/>
    <circle cx="525.0" cy="25.0" fill="black" r="3.875"/>
    <circle cx="525.0" cy="75.0" fill="black" r="5.25"/>
    <circle cx="525.0" cy="125.0" fill="black" r="6.625"/>
    <circle cx="525.0" cy="175.0" fill="black" r="8.0"/>
    <circle cx="525.0" cy="225.0" fill="black" r="9.375"/>
    <circle cx="525.0" cy="275.0" fill="black" r="10.75"/>
    <circle cx="525.0" cy="325.0" fill="black" r="12.125"/>
    <circle cx="525.0" cy="375.0" fill="black" r="13.5"/>
    <circle cx="525.0" cy="425.0" fill="black" r="14.875"/>
    <circle cx="525.0" cy="475.0" fill="black" r="16.25"/>
    <circle cx="525.0" cy="525.0" fill="black" r="17.625"/>
    <circle cx="525.0" cy="575.0" fill="black" r="19.0"/>
    <circle cx="525.0" cy="625.0" fill="black" r="20.375"/>
    <circle cx="525.0" cy="675.0" fill="black" r="21.75"/>
    <circle cx="525.0" cy="725.0" fill="black" r="23.125"/>
    <circle cx="525.0" cy="775.0" fill="black" r="24.5"/>
    <circle cx="525.0" cy="825.0" fill="black" r="25.875"/>
    <circle cx="525.0" cy="875.0" fill="black" r="27.25"/>
    <circle cx="525.0" cy="925.0" fill="black" r="28.625"/>
    <circle cx="525.0" cy="975.0" fill="black" r="30.0"/>
    <circle cx="575.0" cy="25.0" fill="black" r="3.875"/>
    <circle cx="575.0" cy="75.0" fill="black" r="5.25"/>
    <circle cx="575.0" cy="125.0" fill="black" r="6.625"/>
    <circle cx="575.0" cy="175.0" fill="black" r="8.0"/>
    <circle cx="575.0" cy="225.0" fill="black" r="9.375"/>
    <circle cx="575.0" cy="275.0" fill="black" r="10.75"/>
    <circle cx="575.0" cy="325.0" fill="black" r="12.125"/>
    <circle cx="575.0" cy="375.0" fill="black" r="13.5"/>
    <circle cx="575.0" cy="425.0" fill="black" r="14.875"/>
    <circle cx="575.0" cy="475.0" fill="black" r="16.25"/>
    <circle cx="575.0" cy="525.0" fill="black" r="17.625"/>
    <circle cx="575.0" cy="575.0" fill="black" r="19.0"/>
    <circle cx="575.0" cy="625.0" fill="black" r="20.375"/>
    <circle cx="575.0" cy="675.0" fill="black" r="21.75"/>
    <circle cx="575.0" cy="725.0" fill="black" r="23.125"/>
    <circle cx="575.0" cy="775.0" fill="black" r="24.5"/>
    <circle cx="575.0" cy="825.0" fill="black" r="25.875"/>
    <circle cx="575.0" cy="875.0" fill="black" r="27.25"/>
    <circle cx="575.0" cy="925.0" fill="black" r="28.625"/>
    <circle cx="575.0" cy="975.0" fill="black" r="30.0"/>
    <circle cx="625.0" cy="25.0" fill="black" r="3.875"/>
    <circle cx="625.0" cy="75.0" fill="black" r="5.25"/>
    <circle cx="625.0" cy="125.0" fill="black" r="6.625"/>
    <circle cx="625.0" cy="175.0" fill="black" r="8.0"/>
    <circle cx="625.0" cy="225.0" fill="black" r="9.375"/>
    <circle cx="625.0" cy="275.0" fill="black" r="10.75"/>
    <circle cx="625.0" cy="325.0" fill="black" r="12.125"/>
    <circle cx="625.0" cy="375.0" fill="black" r="13.5"/>
    <circle cx="625.0" cy="425.0" fill="black" r="14.875"/>
    <circle cx="625.0" cy="475.0" fill="black" r="16.25"/>
    <circle cx="625.0" cy="525.0" fill="black" r="17.625"/>
    <circle cx="625.0" cy="575.0" fill="black" r="19.0"/>
    <circle cx="625.0" cy="625.0" fill="black" r="20.375"/>
    <circle cx="625.0" cy="675.0" fill="black" r="21.75"/>
    <circle cx="625.0" cy="725.0" fill="black" r="23.125"/>
    <circle cx="625.0" cy="775.0" fill="black" r="24.5"/>
    <circle cx="625.0" cy="825.0" fill="black" r="25.875"/>
    <circle cx="625.0" cy="875.0" fill="black" r="27.25"/>
    <circle cx="625.0" cy="925.0" fill="black" r="28.625"/>
    <circle cx="625.0" cy="975.0" fill="black" r="30.0"/>
    <circle cx="675.0" cy="25.0" fill="black" r="3.875"/>
    <circle cx="675.0" cy="75.0" fill="black" r="5.25"/>
    <circle cx="675.0" cy="125.0" fill="black" r="6.625"/>
    <circle cx="675.0" cy="175.0" fill="black" r="8.0"/>
    <circle cx="675.0" cy="225.0" fill="black" r="9.375"/>
    <circle cx="675.0" cy="275.0" fill="black" r="10.75"/>
    <circle cx="675.0" cy="325.0" fill="black" r="12.125"/>
    <circle cx="675.0" cy="375.0" fill="black" r="13.5"/>
    <circle cx="675.0" cy="425.0" fill="black" r="14.875"/>
    <circle cx="675.0" cy="475.0" fill="black" r="16.25"/>
    <circle cx="675.0" cy="525.0" fill="black" r="17.625"/>
    <circle cx="675.0" cy="575.0" fill="black" r="19.0"/>
    <circle cx="675.0" cy="625.0" fill="black" r="20.375"/>
    <circle cx="675.0" cy="675.0" fill="black" r="21.75"/>
    <circle cx="675.0" cy="725.0" fill="black" r="23.125"/>
    <circle cx="675.0" cy="775.0" fill="black" r="24.5"/>
    <circle cx="675.0" cy="825.0" fill="black" r="25.875"/>
    <circle cx="675.0" cy="875.0" fill="black" r="27.25"/>
    <circle cx="675.0" cy="925.0" fill="black" r="28.625"/>
    <circle cx="675.0" cy="975.0" fill="black" r="30.0"/>
    <circle cx="725.0" cy="25.0" fill="black" r="3.875"/>
    <circle cx="725.0" cy="75.0" fill="black" r="5.25"/>
    <circle cx="725.0" cy="125.0" fill="black" r="6.625"/>
    <circle cx="725.0" cy="175.0" fill="black" r="8.0"/>
    <circle cx="725.0" cy="225.0" fill="black" r="9.375"/>
    <circle cx="725.0" cy="275.0" fill="black" r="10.75"/>
    <circle cx="725.0" cy="325.0" fill="black" r="12.125"/>
    <circle cx="725.0" cy="375.0" fill="black" r="13.5"/>
    <circle cx="725.0" cy="425.0" fill="black" r="14.875"/>
    <circle cx="725.0" cy="475.0" fill="black" r="16.25"/>
    <circle cx="725.0" cy="525.0" fill="black" r="17.625"/>
    <circle cx="725.0" cy="575.0" fill="black" r="19.0"/>
    <circle cx="725.0" cy="625.0" fill="black" r="20.375"/>
    <circle cx="725.0" cy="675.0" fill="black" r="21.75"/>
    <circle cx="725.0" cy="725.0" fill="black" r="23.125"/>
    <circle cx="725.0" cy="775.0" fill="black" r="24.5"/>
    <circle cx="725.0" cy="825.0" fill="black" r="25.875"/>
    <circle cx="725.0" cy="875.0" fill="black" r="27.25"/>
    <circle cx="725.0" cy="925.0" fill="black" r="28.625"/>
    <circle cx="725.0" cy="975.0" fill="black" r="30.0"/>
    <circle cx="775.0" cy="25.0" fill="black" r="3.875"/>
    <circle cx="775.0" cy="75.0" fill="black" r="5.25"/>
    <circle cx="775.0" cy="125.0" fill="black" r="6.625"/>
    <circle cx="775.0" cy="175.0" fill="black" r="8.0"/>
    <circle cx="775.0" cy="225.0" fill="black" r="9.375"/>
    <circle cx="775.0" cy="275.0" fill="black" r="10.75"/>
    <circle cx="775.0" cy="325.0" fill="black" r="12.125"/>
    <circle cx="775.0" cy="375.0" fill="black" r="13.5"/>
    <circle cx="775.0" cy="425.0" fill="black" r="14.875"/>
    <circle cx="775.0" cy="475.0" fill="black" r="16.25"/>
    <circle cx="775.0" cy="525.0" fill="black" r="17.625"/>
    <circle cx="775.0" cy="575.0" fill="black" r="19.0"/>
    <circle cx="775.0" cy="625.0" fill="black" r="20.375"/>
    <circle cx="775.0" cy="675.0" fill="black" r="21.75"/>
    <circle cx="775.0" cy="725.0" fill="black" r="23.125"/>
    <circle cx="775.0" cy="775.0" fill="black" r="24.5"/>
    <circle cx="775.0" cy="825.0" fill="black" r="25.875"/>
    <circle cx="775.0" cy="875.0" fill="black" r="27.25"/>
    <circle cx="775.0" cy="925.0" fill="black" r="28.625"/>
    <circle cx="775.0" cy="975.0" fill="black" r="30.0"/>
    <circle cx="825.0" cy="25.0" fill="black" r="3.875"/>
    <circle cx="825.0" cy="75.0" fill="black" r="5.25"/>
    <circle cx="825.0" cy="125.0" fill="black" r="6.625"/>
    <circle cx="825.0" cy="175.0" fill="black" r="8.0"/>
    <circle cx="825.0" cy="225.0" fill="black" r="9.375"/>
    <circle cx="825.0" cy="275.0" fill="black" r="10.75"/>
    <circle cx="825.0" cy="325.0" fill="black" r="12.125"/>
    <circle cx="825.0" cy="375.0" fill="black" r="13.5"/>
    <circle cx="825.0" cy="425.0" fill="black" r="14.875"/>
    <circle cx="825.0" cy="475.0" fill="black" r="16.25"/>
    <circle cx="825.0" cy="525.0" fill="black" r="17.625"/>
    <circle cx="825.0" cy="575.0" fill="black" r="19.0"/>
    <circle cx="825.0" cy="625.0" fill="black" r="20.375"/>
    <circle cx="825.0" cy="675.0" fill="black" r="21.75"/>
    <circle cx="825.0" cy="725.0" fill="black" r="23.125"/>
    <circle cx="825.0" cy="775.0" fill="black" r="24.5"/>
    <circle cx="825.0" cy="825.0" fill="black" r="25.875"/>
    <circle cx="825.0" cy="875.0" fill="black" r="27.25"/>
    <circle cx="825.0" cy="925.0" fill="black" r="28.625"/>
    <circle cx="825.0" cy="975.0" fill="black" r="30.0"/>
    <circle cx="875.0" cy="25.0" fill="black" r="3.875"/>
    <circle cx="875.0" cy="75.0" fill="black" r="5.25"/>
    <circle cx="875.0" cy="125.0" fill="black" r="6.625"/>
    <circle cx="875.0" cy="175.0" fill="black" r="8.0"/>
    <circle cx="875.0" cy="225.0" fill="black" r="9.375"/>
    <circle cx="875.0" cy="275.0" fill="black" r="10.75"/>
    <circle cx="875.0" cy="325.0" fill="black" r="12.125"/>
    <circle cx="875.0" cy="375.0" fill="black" r="13.5"/>
    <circle cx="875.0" cy="425.0" fill="black" r="14.875"/>
    <circle cx="875.0" cy="475.0" fill="black" r="16.25"/>
    <circle cx="875.0" cy="525.0" fill="black" r="17.625"/>
    <circle cx="875.0" cy="575.0" fill="black" r="19.0"/>
    <circle cx="875.0" cy="625.0" fill="black" r="20.375"/>
    <circle cx="875.0" cy="675.0" fill="black" r="21.75"/>
    <circle cx="875.0" cy="725.0" fill="black" r="23.125"/>
    <circle cx="875.0" cy="775.0" fill="black" r="24.5"/>
    <circle cx="875.0" cy="825.0" fill="black" r="25.875"/>
    <circle cx="875.0" cy="875.0" fill="black" r="27.25"/>
    <circle cx="875.0" cy="925.0" fill="black" r="28.625"/>
    <circle cx="875.0" cy="975.0" fill="black" r="30.0"/>
    <circle cx="925.0" cy="25.0" fill="black" r="3.875"/>
    <circle cx="925.0" cy="75.0" fill="black" r="5.25"/>
    <circle cx="925.0" cy="125.0" fill="black" r="6.625"/>
    <circle cx="925.0" cy="175.0" fill="black" r="8.0"/>
    <circle cx="925.0" cy="225.0" fill="black" r="9.375"/>
    <circle cx="925.0" cy="275.0" fill="black" r="10.75"/>
    <circle cx="925.0" cy="325.0" fill="black" r="12.125"/>
    <circle cx="925.0" cy="375.0" fill="black" r="13.5"/>
    <circle cx="925.0" cy="425.0" fill="black" r="14.875"/>
    <circle cx="925.0" cy="475.0" fill="black" r="16.25"/>
    <circle cx="925.0" cy="525.0" fill="black" r="17.625"/>
    <circle cx="925.0" cy="575.0" fill="black" r="19.0"/>
    <circle cx="925.0" cy="625.0" fill="black" r="20.375"/>
    <circle cx="925.0" cy="675.0" fill="black" r="21.75"/>
    <circle cx="925.0" cy="725.0" fill="black" r="23.125"/>
    <circle cx="925.0" cy="775.0" fill="black" r="24.5"/>
    <circle cx="925.0" cy="825.0" fill="black" r="25.875"/>
    <circle cx="925.0" cy="875.0" fill="black" r="27.25"/>
    <circle cx="925.0" cy="925.0" fill="black" r="28.625"/>
    <circle cx="925.0" cy="975.0" fill="black" r="30.0"/>
    <circle cx="975.0" cy="25.0" fill="black" r="3.875"/>
    <circle cx="975.0" cy="75.0" fill="black" r="5.25"/>
    <circle cx="975.0" cy="125.0" fill="black" r="6.625"/>
    <circle cx="975.0" cy="175.0" fill="black" r="8.0"/>
    <circle cx="975.0" cy="225.0" fill="black" r="9.375"/>
    <circle cx="975.0" cy="275.0" fill="black" r="10.75"/>
    <circle cx="975.0" cy="325.0" fill="black" r="12.125"/>
    <circle cx="975.0" cy="375.0" fill="black" r="13.5"/>
    <circle cx="975.0" cy="425.0" fill="black" r="14.875"/>
    <circle cx="975.0" cy="475.0" fill="black" r="16.25"/>
    <circle cx="975.0" cy="525.0" fill="black" r="17.625"/>
    <circle cx="975.0" cy="575.0" fill="black" r="19.0"/>
    <circle cx="975.0" cy="625.0" fill="black" r="20.375"/>
    <circle cx="975.0" cy="675.0" fill="black" r="21.75"/>
    <circle cx="975.0" cy="725.0" fill="black" r="23.125"/>
    <circle cx="975.0" cy="775.0" fill="black" r="24.5"/>
    <circle cx="975.0" cy="825.0" fill="black" r="25.875"/>
    <circle cx="975.0" cy="875.0" fill="black" r="27.25"/>
    <circle cx="975.0" cy="925.0" fill="black" r="28.625"/>
    <circle cx="975.0" cy="975.0" fill="black" r="30.0"/>
  </g>
</svg>
