<?xml version="1.0" encoding="utf-8" ?>
<svg xmlns="http://www.w3.org/2000/svg" xmlns:ev="http://www.w3.org/2001/xml-events" xmlns:xlink="http://www.w3.org/1999/xlink" baseProfile="full" fill="none" height="1000" version="1.1" viewBox="0 0 1000 1000" width="1000">
  <defs/>
  <g transform="rotate(0)">
    <circle cx="16.666666666666668" cy="16.666666666666668" fill="black" r="8.4"/>
    <circle cx="16.666666666666668" cy="50.0" fill="black" r="8.8"/>
    <circle cx="16.666666666666668" cy="83.33333333333334" fill="black" r="9.2"/>
    <circle cx="16.666666666666668" cy="116.66666666666667" fill="black" r="9.6"/>
    <circle cx="16.666666666666668" cy="150.0" fill="black" r="10.0"/>
    <circle cx="16.666666666666668" cy="183.33333333333334" fill="black" r="10.4"/>
    <circle cx="16.666666666666668" cy="216.66666666666666" fill="black" r="10.8"/>
    <circle cx="16.666666666666668" cy="250.0" fill="black" r="11.2"/>
    <circle cx="16.666666666666668" cy="283.33333333333337" fill="black" r="11.6"/>
    <circle cx="16.666666666666668" cy="316.6666666666667" fill="black" r="12.0"/>
    <circle cx="16.666666666666668" cy="350.00000000000006" fill="black" r="12.4"/>
    <circle cx="16.666666666666668" cy="383.33333333333337" fill="black" r="12.8"/>
    <circle cx="16.666666666666668" cy="416.6666666666667" fill="black" r="13.2"/>
    <circle cx="16.666666666666668" cy="450.00000000000006" fill="black" r="13.6"/>
    <circle cx="16.666666666666668" cy="483.33333333333337" fill="black" r="14.0"/>
    <circle cx="16.666666666666668" cy="516.6666666666667" fill="black" r="14.4"/>
    <circle cx="16.666666666666668" cy="550.0" fill="black" r="14.8"/>
    <circle cx="16.666666666666668" cy="583.3333333333334" fill="black" r="15.2"/>
    <circle cx="16.666666666666668" cy="616.6666666666666" fill="black" r="15.6"/>
    <circle cx="16.666666666666668" cy="650.0" fill="black" r="16.0"/>
    <circle cx="16.666666666666668" cy="683.3333333333334" fill="black" r="16.4"/>
    <circle cx="16.666666666666668" cy="716.6666666666666" fill="black" r="16.8"/>
    <circle cx="16.666666666666668" cy="750.0" fill="black" r="17.2"/>
    <circle cx="16.666666666666668" cy="783.3333333333334" fill="black" r="17.6"/>
    <circle cx="16.666666666666668" cy="816.6666666666666" fill="black" r="18.0"/>
    <circle cx="16.666666666666668" cy="850.0" fill="black" r="18.4"/>
    <circle cx="16.666666666666668" cy="883.3333333333334" fill="black" r="18.8"/>
    <circle cx="16.666666666666668" cy="916.6666666666667" fill="black" r="19.2"/>
    <circle cx="16.666666666666668" cy="950.0" fill="black" r="19.6"/>
    <circle cx="16.666666666666668" cy="983.3333333333334" fill="black" r="20.0"/>
    <circle cx="50.0" cy="16.666666666666668" fill="black" r="8.4"/>
    <circle cx="50.0" cy="50.0" fill="black" r="8.8"/>
    <circle cx="50.0" cy="83.33333333333334" fill="black" r="9.2"/>
    <circle cx="50.0" cy="116.66666666666667" fill="black" r="9.6"/>
    <circle cx="50.0" cy="150.0" fill="black" r="10.0"/>
    <circle cx="50.0" cy="183.33333333333334" fill="black" r="10.4"/>
    <circle cx="50.0" cy="216.66666666666666" fill="black" r="10.8"/>
    <circle cx="50.0" cy="250.0" fill="black" r="11.2"/>
    <circle cx="50.0" cy="283.33333333333337" fill="black" r="11.6"/>
    <circle cx="50.0" cy="316.6666666666667" fill="black" r="12.0"/>
    <circle cx="50.0" cy="350.00000000000006" fill="black" r="12.4"/>
    <circle cx="50.0" cy="383.33333333333337" fill="black" r="12.8"/>
    <circle cx="50.0" cy="416.6666666666667" fill="black" r="13.2"/>
    <circle cx="50.0" cy="450.00000000000006" fill="black" r="13.6"/>
    <circle cx="50.0" cy="483.33333333333337" fill="black" r="14.0"/>
    <circle cx="50.0" cy="516.6666666666667" fill="black" r="14.4"/>
    <circle cx="50.0" cy="550.0" fill="black" r="14.8"/>
    <circle cx="50.0" cy="583.3333333333334" fill="black" r="15.2"/>
    <circle cx="50.0" cy="616.6666666666666" fill="black" r="15.6"/>
    <circle cx="50.0" cy="650.0" fill="black" r="16.0"/>
    <circle cx="50.0" cy="683.3333333333334" fill="black" r="16.4"/>
    <circle cx="50.0" cy="716.6666666666666" fill="black" r="16.8"/>
    <circle cx="50.0" cy="750.0" fill="black" r="17.2"/>
    <circle cx="50.0" cy="783.3333333333334" fill="black" r="17.6"/>
    <circle cx="50.0" cy="816.6666666666666" fill="black" r="18.0"/>
    <circle cx="50.0" cy="850.0" fill="black" r="18.4"/>
    <circle cx="50.0" cy="883.3333333333334" fill="black" r="18.8"/>
    <circle cx="50.0" cy="916.6666666666667" fill="black" r="19.2"/>
    <circle cx="50.0" cy="950.0" fill="black" r="19.6"/>
    <circle cx="50.0" cy="983.3333333333334" fill="black" r="20.0"/>
    <circle cx="83.33333333333334" cy="16.666666666666668" fill="black" r="8.4"/>
    <circle cx="83.33333333333334" cy="50.0" fill="black" r="8.8"/>
    <circle cx="83.33333333333334" cy="83.33333333333334" fill="black" r="9.2"/>
    <circle cx="83.33333333333334" cy="116.66666666666667" fill="black" r="9.6"/>
    <circle cx="83.33333333333334" cy="150.0" fill="black" r="10.0"/>
    <circle cx="83.33333333333334" cy="183.33333333333334" fill="black" r="10.4"/>
    <circle cx="83.33333333333334" cy="216.66666666666666" fill="black" r="10.8"/>
    <circle cx="83.33333333333334" cy="250.0" fill="black" r="11.2"/>
    <circle cx="83.33333333333334" cy="283.33333333333337" fill="black" r="11.6"/>
    <circle cx="83.33333333333334" cy="316.6666666666667" fill="black" r="12.0"/>
    <circle cx="83.33333333333334" cy="350.00000000000006" fill="black" r="12.4"/>
    <circle cx="83.33333333333334" cy="383.33333333333337" fill="black" r="12.8"/>
    <circle cx="83.33333333333334" cy="416.6666666666667" fill="black" r="13.2"/>
    <circle cx="83.33333333333334" cy="450.00000000000006" fill="black" r="13.6"/>
    <circle cx="83.33333333333334" cy="483.33333333333337" fill="black" r="14.0"/>
    <circle cx="83.33333333333334" cy="516.6666666666667" fill="black" r="14.4"/>
    <circle cx="83.33333333333334" cy="550.0" fill="black" r="14.8"/>
    <circle cx="83.33333333333334" cy="583.3333333333334" fill="black" r="15.2"/>
    <circle cx="83.33333333333334" cy="616.6666666666666" fill="black" r="15.6"/>
    <circle cx="83.33333333333334" cy="650.0" fill="black" r="16.0"/>
    <circle cx="83.33333333333334" cy="683.3333333333334" fill="black" r="16.4"/>
    <circle cx="83.33333333333334" cy="716.6666666666666" fill="black" r="16.8"/>
    <circle cx="83.33333333333334" cy="750.0" fill="black" r="17.2"/>
    <circle cx="83.33333333333334" cy="783.3333333333334" fill="black" r="17.6"/>
    <circle cx="83.33333333333334" cy="816.6666666666666" fill="black" r="18.0"/>
    <circle cx="83.33333333333334" cy="850.0" fill="black" r="18.4"/>
    <circle cx="83.33333333333334" cy="883.3333333333334" fill="black" r="18.8"/>
    <circle cx="83.33333333333334" cy="916.6666666666667" fill="black" r="19.2"/>
    <circle cx="83.33333333333334" cy="950.0" fill="black" r="19.6"/>
    <circle cx="83.33333333333334" cy="983.3333333333334" fill="black" r="20.0"/>
    <circle cx="116.66666666666667" cy="16.666666666666668" fill="black" r="8.4"/>
    <circle cx="116.66666666666667" cy="50.0" fill="black" r="8.8"/>
    <circle cx="116.66666666666667" cy="83.33333333333334" fill="black" r="9.2"/>
    <circle cx="116.66666666666667" cy="116.66666666666667" fill="black" r="9.6"/>
    <circle cx="116.66666666666667" cy="150.0" fill="black" r="10.0"/>
    <circle cx="116.66666666666667" cy="183.33333333333334" fill="black" r="10.4"/>
    <circle cx="116.66666666666667" cy="216.66666666666666" fill="black" r="10.8"/>
    <circle cx="116.66666666666667" cy="250.0" fill="black" r="11.2"/>
    <circle cx="116.66666666666667" cy="283.33333333333337" fill="black" r="11.6"/>
    <circle cx="116.66666666666667" cy="316.6666666666667" fill="black" r="12.0"/>
    <circle cx="116.66666666666667" cy="350.00000000000006" fill="black" r="12.4"/>
    <circle cx="116.66666666666667" cy="383.33333333333337" fill="black" r="12.8"/>
    <circle cx="116.66666666666667" cy="416.6666666666667" fill="black" r="13.2"/>
    <circle cx="116.66666666666667" cy="450.00000000000006" fill="black" r="13.6"/>
    <circle cx="116.66666666666667" cy="483.33333333333337" fill="black" r="14.0"/>
    <circle cx="116.66666666666667" cy="516.6666666666667" fill="black" r="14.4"/>
    <circle cx="116.66666666666667" cy="550.0" fill="black" r="14.8"/>
    <circle cx="116.66666666666667" cy="583.3333333333334" fill="black" r="15.2"/>
    <circle cx="116.66666666666667" cy="616.6666666666666" fill="black" r="15.6"/>
    <circle cx="116.66666666666667" cy="650.0" fill="black" r="16.0"/>
    <circle cx="116.66666666666667" cy="683.3333333333334" fill="black" r="16.4"/>
    <circle cx="116.66666666666667" cy="716.6666666666666" fill="black" r="16.8"/>
    <circle cx="116.66666666666667" cy="750.0" fill="black" r="17.2"/>
    <circle cx="116.66666666666667" cy="783.3333333333334" fill="black" r="17.6"/>
    <circle cx="116.66666666666667" cy="816.6666666666666" fill="black" r="18.0"/>
    <circle cx="116.66666666666667" cy="850.0" fill="black" r="18.4"/>
    <circle cx="116.66666666666667" cy="883.3333333333334" fill="black" r="18.8"/>
    <circle cx="116.66666666666667" cy="916.6666666666667" fill="black" r="19.2"/>
    <circle cx="116.66666666666667" cy="950.0" fill="black" r="19.6"/>
    <circle cx="116.66666666666667" cy="983.3333333333334" fill="black" r="20.0"/>
    <circle cx="150.0" cy="16.666666666666668" fill="black" r="8.4"/>
    <circle cx="150.0" cy="50.0" fill="black" r="8.8"/>
    <circle cx="150.0" cy="83.33333333333334" fill="black" r="9.2"/>
    <circle cx="150.0" cy="116.66666666666667" fill="black" r="9.6"/>
    <circle cx="150.0" cy="150.0" fill="black" r="10.0"/>
    <circle cx="150.0" cy="183.33333333333334" fill="black" r="10.4"/>
    <circle cx="150.0" cy="216.66666666666666" fill="black" r="10.8"/>
    <circle cx="150.0" cy="250.0" fill="black" r="11.2"/>
    <circle cx="150.0" cy="283.33333333333337" fill="black" r="11.6"/>
    <circle cx="150.0" cy="316.6666666666667" fill="black" r="12.0"/>
    <circle cx="150.0" cy="350.00000000000006" fill="black" r="12.4"/>
    <circle cx="150.0" cy="383.33333333333337" fill="black" r="12.8"/>
    <circle cx="150.0" cy="416.6666666666667" fill="black" r="13.2"/>
    <circle cx="150.0" cy="450.00000000000006" fill="black" r="13.6"/>
    <circle cx="150.0" cy="483.33333333333337" fill="black" r="14.0"/>
    <circle cx="150.0" cy="516.6666666666667" fill="black" r="14.4"/>
    <circle cx="150.0" cy="550.0" fill="black" r="14.8"/>
    <circle cx="150.0" cy="583.3333333333334" fill="black" r="15.2"/>
    <circle cx="150.0" cy="616.6666666666666" fill="black" r="15.6"/>
    <circle cx="150.0" cy="650.0" fill="black" r="16.0"/>
    <circle cx="150.0" cy="683.3333333333334" fill="black" r="16.4"/>
    <circle cx="150.0" cy="716.6666666666666" fill="black" r="16.8"/>
    <circle cx="150.0" cy="750.0" fill="black" r="17.2"/>
    <circle cx="150.0" cy="783.3333333333334" fill="black" r="17.6"/>
    <circle cx="150.0" cy="816.6666666666666" fill="black" r="18.0"/>
    <circle cx="150.0" cy="850.0" fill="black" r="18.4"/>
    <circle cx="150.0" cy="883.3333333333334" fill="black" r="18.8"/>
    <circle cx="150.0" cy="916.6666666666667" fill="black" r="19.2"/>
    <circle cx="150.0" cy="950.0" fill="black" r="19.6"/>
    <circle cx="150.0" cy="983.3333333333334" fill="black" r="20.0"/>
    <circle cx="183.33333333333334" cy="16.666666666666668" fill="black" r="8.4"/>
    <circle cx="183.33333333333334" cy="50.0" fill="black" r="8.8"/>
    <circle cx="183.33333333333334" cy="83.33333333333334" fill="black" r="9.2"/>
    <circle cx="183.33333333333334" cy="116.66666666666667" fill="black" r="9.6"/>
    <circle cx="183.33333333333334" cy="150.0" fill="black" r="10.0"/>
    <circle cx="183.33333333333334" cy="183.33333333333334" fill="black" r="10.4"/>
    <circle cx="183.33333333333334" cy="216.66666666666666" fill="black" r="10.8"/>
    <circle cx="183.33333333333334" cy="250.0" fill="black" r="11.2"/>
    <circle cx="183.33333333333334" cy="283.33333333333337" fill="black" r="11.6"/>
    <circle cx="183.33333333333334" cy="316.6666666666667" fill="black" r="12.0"/>
    <circle cx="183.33333333333334" cy="350.00000000000006" fill="black" r="12.4"/>
    <circle cx="183.33333333333334" cy="383.33333333333337" fill="black" r="12.8"/>
    <circle cx="183.33333333333334" cy="416.6666666666667" fill="black" r="13.2"/>
    <circle cx="183.33333333333334" cy="450.00000000000006" fill="black" r="13.6"/>
    <circle cx="183.33333333333334" cy="483.33333333333337" fill="black" r="14.0"/>
    <circle cx="183.33333333333334" cy="516.6666666666667" fill="black" r="14.4"/>
    <circle cx="183.33333333333334" cy="550.0" fill="black" r="14.8"/>
    <circle cx="183.33333333333334" cy="583.3333333333334" fill="black" r="15.2"/>
    <circle cx="183.33333333333334" cy="616.6666666666666" fill="black" r="15.6"/>
    <circle cx="183.33333333333334" cy="650.0" fill="black" r="16.0"/>
    <circle cx="183.33333333333334" cy="683.3333333333334" fill="black" r="16.4"/>
    <circle cx="183.33333333333334" cy="716.6666666666666" fill="black" r="16.8"/>
    <circle cx="183.33333333333334" cy="750.0" fill="black" r="17.2"/>
    <circle cx="183.33333333333334" cy="783.3333333333334" fill="black" r="17.6"/>
    <circle cx="183.33333333333334" cy="816.6666666666666" fill="black" r="18.0"/>
    <circle cx="183.33333333333334" cy="850.0" fill="black" r="18.4"/>
    <circle cx="183.33333333333334" cy="883.3333333333334" fill="black" r="18.8"/>
    <circle cx="183.33333333333334" cy="916.6666666666667" fill="black" r="19.2"/>
    <circle cx="183.33333333333334" cy="950.0" fill="black" r="19.6"/>
    <circle cx="183.33333333333334" cy="983.3333333333334" fill="black" r="20.0"/>
    <circle cx="216.66666666666666" cy="16.666666666666668" fill="black" r="8.4"/>
    <circle cx="216.66666666666666" cy="50.0" fill="black" r="8.8"/>
    <circle cx="216.66666666666666" cy="83.33333333333334" fill="black" r="9.2"/>
    <circle cx="216.66666666666666" cy="116.66666666666667" fill="black" r="9.6"/>
    <circle cx="216.66666666666666" cy="150.0" fill="black" r="10.0"/>
    <circle cx="216.66666666666666" cy="183.33333333333334" fill="black" r="10.4"/>
    <circle cx="216.66666666666666" cy="216.66666666666666" fill="black" r="10.8"/>
    <circle cx="216.66666666666666" cy="250.0" fill="black" r="11.2"/>
    <circle cx="216.66666666666666" cy="283.33333333333337" fill="black" r="11.6"/>
    <circle cx="216.66666666666666" cy="316.6666666666667" fill="black" r="12.0"/>
    <circle cx="216.66666666666666" cy="350.00000000000006" fill="black" r="12.4"/>
    <circle cx="216.66666666666666" cy="383.33333333333337" fill="black" r="12.8"/>
    <circle cx="216.66666666666666" cy="416.6666666666667" fill="black" r="13.2"/>
    <circle cx="216.66666666666666" cy="450.00000000000006" fill="black" r="13.6"/>
    <circle cx="216.66666666666666" cy="483.33333333333337" fill="black" r="14.0"/>
    <circle cx="216.66666666666666" cy="516.6666666666667" fill="black" r="14.4"/>
    <circle cx="216.66666666666666" cy="550.0" fill="black" r="14.8"/>
    <circle cx="216.66666666666666" cy="583.3333333333334" fill="black" r="15.2"/>
    <circle cx="216.66666666666666" cy="616.6666666666666" fill="black" r="15.6"/>
    <circle cx="216.66666666666666" cy="650.0" fill="black" r="16.0"/>
    <circle cx="216.66666666666666" cy="683.3333333333334" fill="black" r="16.4"/>
    <circle cx="216.66666666666666" cy="716.6666666666666" fill="black" r="16.8"/>
    <circle cx="216.66666666666666" cy="750.0" fill="black" r="17.2"/>
    <circle cx="216.66666666666666" cy="783.3333333333334" fill="black" r="17.6"/>
    <circle cx="216.66666666666666" cy="816.6666666666666" fill="black" r="18.0"/>
    <circle cx="216.66666666666666" cy="850.0" fill="black" r="18.4"/>
    <circle cx="216.66666666666666" cy="883.3333333333334" fill="black" r="18.8"/>
    <circle cx="216.66666666666666" cy="916.6666666666667" fill="black" r="19.2"/>
    <circle cx="216.66666666666666" cy="950.0" fill="black" r="19.6"/>
    <circle cx="216.66666666666666" cy="983.3333333333334" fill="black" r="20.0"/>
    <circle cx="250.0" cy="16.666666666666668" fill="black" r="8.4"/>
    <circle cx="250.0" cy="50.0" fill="black" r="8.8"/>
    <circle cx="250.0" cy="83.33333333333334" fill="black" r="9.2"/>
    <circle cx="250.0" cy="116.66666666666667" fill="black" r="9.6"/>
    <circle cx="250.0" cy="150.0" fill="black" r="10.0"/>
    <circle cx="250.0" cy="183.33333333333334" fill="black" r="10.4"/>
    <circle cx="250.0" cy="216.66666666666666" fill="black" r="10.8"/>
    <circle cx="250.0" cy="250.0" fill="black" r="11.2"/>
    <circle cx="250.0" cy="283.33333333333337" fill="black" r="11.6"/>
    <circle cx="250.0" cy="316.6666666666667" fill="black" r="12.0"/>
    <circle cx="250.0" cy="350.00000000000006" fill="black" r="12.4"/>
    <circle cx="250.0" cy="383.33333333333337" fill="black" r="12.8"/>
    <circle cx="250.0" cy="416.6666666666667" fill="black" r="13.2"/>
    <circle cx="250.0" cy="450.00000000000006" fill="black" r="13.6"/>
    <circle cx="250.0" cy="483.33333333333337" fill="black" r="14.0"/>
    <circle cx="250.0" cy="516.6666666666667" fill="black" r="14.4"/>
    <circle cx="250.0" cy="550.0" fill="black" r="14.8"/>
    <circle cx="250.0" cy="583.3333333333334" fill="black" r="15.2"/>
    <circle cx="250.0" cy="616.6666666666666" fill="black" r="15.6"/>
    <circle cx="250.0" cy="650.0" fill="black" r="16.0"/>
    <circle cx="250.0" cy="683.3333333333334" fill="black" r="16.4"/>
    <circle cx="250.0" cy="716.6666666666666" fill="black" r="16.8"/>
    <circle cx="250.0" cy="750.0" fill="black" r="17.2"/>
    <circle cx="250.0" cy="783.3333333333334" fill="black" r="17.6"/>
    <circle cx="250.0" cy="816.6666666666666" fill="black" r="18.0"/>
    <circle cx="250.0" cy="850.0" fill="black" r="18.4"/>
    <circle cx="250.0" cy="883.3333333333334" fill="black" r="18.8"/>
    <circle cx="250.0" cy="916.6666666666667" fill="black" r="19.2"/>
    <circle cx="250.0" cy="950.0" fill="black" r="19.6"/>
    <circle cx="250.0" cy="983.3333333333334" fill="black" r="20.0"/>
    <circle cx="283.33333333333337" cy="16.666666666666668" fill="black" r="8.4"/>
    <circle cx="283.33333333333337" cy="50.0" fill="black" r="8.8"/>
    <circle cx="283.33333333333337" cy="83.33333333333334" fill="black" r="9.2"/>
    <circle cx="283.33333333333337" cy="116.66666666666667" fill="black" r="9.6"/>
    <circle cx="283.33333333333337" cy="150.0" fill="black" r="10.0"/>
    <circle cx="283.33333333333337" cy="183.33333333333334" fill="black" r="10.4"/>
    <circle cx="283.33333333333337" cy="216.66666666666666" fill="black" r="10.8"/>
    <circle cx="283.33333333333337" cy="250.0" fill="black" r="11.2"/>
    <circle cx="283.33333333333337" cy="283.33333333333337" fill="black" r="11.6"/>
    <circle cx="283.33333333333337" cy="316.6666666666667" fill="black" r="12.0"/>
    <circle cx="283.33333333333337" cy="350.00000000000006" fill="black" r="12.4"/>
    <circle cx="283.33333333333337" cy="383.33333333333337" fill="black" r="12.8"/>
    <circle cx="283.33333333333337" cy="416.6666666666667" fill="black" r="13.2"/>
    <circle cx="283.33333333333337" cy="450.00000000000006" fill="black" r="13.6"/>
    <circle cx="283.33333333333337" cy="483.33333333333337" fill="black" r="14.0"/>
    <circle cx="283.33333333333337" cy="516.6666666666667" fill="black" r="14.4"/>
    <circle cx="283.33333333333337" cy="550.0" fill="black" r="14.8"/>
    <circle cx="283.33333333333337" cy="583.3333333333334" fill="black" r="15.2"/>
    <circle cx="283.33333333333337" cy="616.6666666666666" fill="black" r="15.6"/>
    <circle cx="283.33333333333337" cy="650.0" fill="black" r="16.0"/>
    <circle cx="283.33333333333337" cy="683.3333333333334" fill="black" r="16.4"/>
    <circle cx="283.33333333333337" cy="716.6666666666666" fill="black" r="16.8"/>
    <circle cx="283.33333333333337" cy="750.0" fill="black" r="17.2"/>
    <circle cx="283.33333333333337" cy="783.3333333333334" fill="black" r="17.6"/>
    <circle cx="283.33333333333337" cy="816.6666666666666" fill="black" r="18.0"/>
    <circle cx="283.33333333333337" cy="850.0" fill="black" r="18.4"/>
    <circle cx="283.33333333333337" cy="883.3333333333334" fill="black" r="18.8"/>
    <circle cx="283.33333333333337" cy="916.6666666666667" fill="black" r="19.2"/>
    <circle cx="283.33333333333337" cy="950.0" fill="black" r="19.6"/>
    <circle cx="283.33333333333337" cy="983.3333333333334" fill="black" r="20.0"/>
    <circle cx="316.6666666666667" cy="16.666666666666668" fill="black" r="8.4"/>
    <circle cx="316.6666666666667" cy="50.0" fill="black" r="8.8"/>
    <circle cx="316.6666666666667" cy="83.33333333333334" fill="black" r="9.2"/>
    <circle cx="316.6666666666667" cy="116.66666666666667" fill="black" r="9.6"/>
    <circle cx="316.6666666666667" cy="150.0" fill="black" r="10.0"/>
    <circle cx="316.6666666666667" cy="183.33333333333334" fill="black" r="10.4"/>
    <circle cx="316.6666666666667" cy="216.66666666666666" fill="black" r="10.8"/>
    <circle cx="316.6666666666667" cy="250.0" fill="black" r="11.2"/>
    <circle cx="316.6666666666667" cy="283.33333333333337" fill="black" r="11.6"/>
    <circle cx="316.6666666666667" cy="316.6666666666667" fill="black" r="12.0"/>
    <circle cx="316.6666666666667" cy="350.00000000000006" fill="black" r="12.4"/>
    <circle cx="316.6666666666667" cy="383.33333333333337" fill="black" r="12.8"/>
    <circle cx="316.6666666666667" cy="416.6666666666667" fill="black" r="13.2"/>
    <circle cx="316.6666666666667" cy="450.00000000000006" fill="black" r="13.6"/>
    <circle cx="316.6666666666667" cy="483.33333333333337" fill="black" r="14.0"/>
    <circle cx="316.6666666666667" cy="516.6666666666667" fill="black" r="14.4"/>
    <circle cx="316.6666666666667" cy="550.0" fill="black" r="14.8"/>
    <circle cx="316.6666666666667" cy="583.3333333333334" fill="black" r="15.2"/>
    <circle cx="316.6666666666667" cy="616.6666666666666" fill="black" r="15.6"/>
    <circle cx="316.6666666666667" cy="650.0" fill="black" r="16.0"/>
    <circle cx="316.6666666666667" cy="683.3333333333334" fill="black" r="16.4"/>
    <circle cx="316.6666666666667" cy="716.6666666666666" fill="black" r="16.8"/>
    <circle cx="316.6666666666667" cy="750.0" fill="black" r="17.2"/>
    <circle cx="316.6666666666667" cy="783.3333333333334" fill="black" r="17.6"/>
    <circle cx="316.6666666666667" cy="816.6666666666666" fill="black" r="18.0"/>
    <circle cx="316.6666666666667" cy="850.0" fill="black" r="18.4"/>
    <circle cx="316.6666666666667" cy="883.3333333333334" fill="black" r="18.8"/>
    <circle cx="316.6666666666667" cy="916.6666666666667" fill="black" r="19.2"/>
    <circle cx="316.6666666666667" cy="950.0" fill="black" r="19.6"/>
    <circle cx="316.6666666666667" cy="983.3333333333334" fill="black" r="20.0"/>
    <circle cx="350.00000000000006" cy="16.666666666666668" fill="black" r="8.4"/>
    <circle cx="350.00000000000006" cy="50.0" fill="black" r="8.8"/>
    <circle cx="350.00000000000006" cy="83.33333333333334" fill="black" r="9.2"/>
    <circle cx="350.00000000000006" cy="116.66666666666667" fill="black" r="9.6"/>
    <circle cx="350.00000000000006" cy="150.0" fill="black" r="10.0"/>
    <circle cx="350.00000000000006" cy="183.33333333333334" fill="black" r="10.4"/>
    <circle cx="350.00000000000006" cy="216.66666666666666" fill="black" r="10.8"/>
    <circle cx="350.00000000000006" cy="250.0" fill="black" r="11.2"/>
    <circle cx="350.00000000000006" cy="283.33333333333337" fill="black" r="11.6"/>
    <circle cx="350.00000000000006" cy="316.6666666666667" fill="black" r="12.0"/>
    <circle cx="350.00000000000006" cy="350.00000000000006" fill="black" r="12.4"/>
    <circle cx="350.00000000000006" cy="383.33333333333337" fill="black" r="12.8"/>
    <circle cx="350.00000000000006" cy="416.6666666666667" fill="black" r="13.2"/>
    <circle cx="350.00000000000006" cy="450.00000000000006" fill="black" r="13.6"/>
    <circle cx="350.00000000000006" cy="483.33333333333337" fill="black" r="14.0"/>
    <circle cx="350.00000000000006" cy="516.6666666666667" fill="black" r="14.4"/>
    <circle cx="350.00000000000006" cy="550.0" fill="black" r="14.8"/>
    <circle cx="350.00000000000006" cy="583.3333333333334" fill="black" r="15.2"/>
    <circle cx="350.00000000000006" cy="616.6666666666666" fill="black" r="15.6"/>
    <circle cx="350.00000000000006" cy="650.0" fill="black" r="16.0"/>
    <circle cx="350.00000000000006" cy="683.3333333333334" fill="black" r="16.4"/>
    <circle cx="350.00000000000006" cy="716.6666666666666" fill="black" r="16.8"/>
    <circle cx="350.00000000000006" cy="750.0" fill="black" r="17.2"/>
    <circle cx="350.00000000000006" cy="783.3333333333334" fill="black" r="17.6"/>
    <circle cx="350.00000000000006" cy="816.6666666666666" fill="black" r="18.0"/>
    <circle cx="350.00000000000006" cy="850.0" fill="black" r="18.4"/>
    <circle cx="350.00000000000006" cy="883.3333333333334" fill="black" r="18.8"/>
    <circle cx="350.00000000000006" cy="916.6666666666667" fill="black" r="19.2"/>
    <circle cx="350.00000000000006" cy="950.0" fill="black" r="19.6"/>
    <circle cx="350.00000000000006" cy="983.3333333333334" fill="black" r="20.0"/>
    <circle cx="383.33333333333337" cy="16.666666666666668" fill="black" r="8.4"/>
    <circle cx="383.33333333333337" cy="50.0" fill="black" r="8.8"/>
    <circle cx="383.33333333333337" cy="83.33333333333334" fill="black" r="9.2"/>
    <circle cx="383.33333333333337" cy="116.66666666666667" fill="black" r="9.6"/>
    <circle cx="383.33333333333337" cy="150.0" fill="black" r="10.0"/>
    <circle cx="383.33333333333337" cy="183.33333333333334" fill="black" r="10.4"/>
    <circle cx="383.33333333333337" cy="216.66666666666666" fill="black" r="10.8"/>
    <circle cx="383.33333333333337" cy="250.0" fill="black" r="11.2"/>
    <circle cx="383.33333333333337" cy="283.33333333333337" fill="black" r="11.6"/>
    <circle cx="383.33333333333337" cy="316.6666666666667" fill="black" r="12.0"/>
    <circle cx="383.33333333333337" cy="350.00000000000006" fill="black" r="12.4"/>
    <circle cx="383.33333333333337" cy="383.33333333333337" fill="black" r="12.8"/>
    <circle cx="383.33333333333337" cy="416.6666666666667" fill="black" r="13.2"/>
    <circle cx="383.33333333333337" cy="450.00000000000006" fill="black" r="13.6"/>
    <circle cx="383.33333333333337" cy="483.33333333333337" fill="black" r="14.0"/>
    <circle cx="383.33333333333337" cy="516.6666666666667" fill="black" r="14.4"/>
    <circle cx="383.33333333333337" cy="550.0" fill="black" r="14.8"/>
    <circle cx="383.33333333333337" cy="583.3333333333334" fill="black" r="15.2"/>
    <circle cx="383.33333333333337" cy="616.6666666666666" fill="black" r="15.6"/>
    <circle cx="383.33333333333337" cy="650.0" fill="black" r="16.0"/>
    <circle cx="383.33333333333337" cy="683.3333333333334" fill="black" r="16.4"/>
    <circle cx="383.33333333333337" cy="716.6666666666666" fill="black" r="16.8"/>
    <circle cx="383.33333333333337" cy="750.0" fill="black" r="17.2"/>
    <circle cx="383.33333333333337" cy="783.3333333333334" fill="black" r="17.6"/>
    <circle cx="383.33333333333337" cy="816.6666666666666" fill="black" r="18.0"/>
    <circle cx="383.33333333333337" cy="850.0" fill="black" r="18.4"/>
    <circle cx="383.33333333333337" cy="883.3333333333334" fill="black" r="18.8"/>
    <circle cx="383.33333333333337" cy="916.6666666666667" fill="black" r="19.2"/>
    <circle cx="383.33333333333337" cy="950.0" fill="black" r="19.6"/>
    <circle cx="383.33333333333337" cy="983.3333333333334" fill="black" r="20.0"/>
    <circle cx="416.6666666666667" cy="16.666666666666668" fill="black" r="8.4"/>
    <circle cx="416.6666666666667" cy="50.0" fill="black" r="8.8"/>
    <circle cx="416.6666666666667" cy="83.33333333333334" fill="black" r="9.2"/>
    <circle cx="416.6666666666667" cy="116.66666666666667" fill="black" r="9.6"/>
    <circle cx="416.6666666666667" cy="150.0" fill="black" r="10.0"/>
    <circle cx="416.6666666666667" cy="183.33333333333334" fill="black" r="10.4"/>
    <circle cx="416.6666666666667" cy="216.66666666666666" fill="black" r="10.8"/>
    <circle cx="416.6666666666667" cy="250.0" fill="black" r="11.2"/>
    <circle cx="416.6666666666667" cy="283.33333333333337" fill="black" r="11.6"/>
    <circle cx="416.6666666666667" cy="316.6666666666667" fill="black" r="12.0"/>
    <circle cx="416.6666666666667" cy="350.00000000000006" fill="black" r="12.4"/>
    <circle cx="416.6666666666667" cy="383.33333333333337" fill="black" r="12.8"/>
    <circle cx="416.6666666666667" cy="416.6666666666667" fill="black" r="13.2"/>
    <circle cx="416.6666666666667" cy="450.00000000000006" fill="black" r="13.6"/>
    <circle cx="416.6666666666667" cy="483.33333333333337" fill="black" r="14.0"/>
    <circle cx="416.6666666666667" cy="516.6666666666667" fill="black" r="14.4"/>
    <circle cx="416.6666666666667" cy="550.0" fill="black" r="14.8"/>
    <circle cx="416.6666666666667" cy="583.3333333333334" fill="black" r="15.2"/>
    <circle cx="416.6666666666667" cy="616.6666666666666" fill="black" r="15.6"/>
    <circle cx="416.6666666666667" cy="650.0" fill="black" r="16.0"/>
    <circle cx="416.6666666666667" cy="683.3333333333334" fill="black" r="16.4"/>
    <circle cx="416.6666666666667" cy="716.6666666666666" fill="black" r="16.8"/>
    <circle cx="416.6666666666667" cy="750.0" fill="black" r="17.2"/>
    <circle cx="416.6666666666667" cy="783.3333333333334" fill="black" r="17.6"/>
    <circle cx="416.6666666666667" cy="816.6666666666666" fill="black" r="18.0"/>
    <circle cx="416.6666666666667" cy="850.0" fill="black" r="18.4"/>
    <circle cx="416.6666666666667" cy="883.3333333333334" fill="black" r="18.8"/>
    <circle cx="416.6666666666667" cy="916.6666666666667" fill="black" r="19.2"/>
    <circle cx="416.6666666666667" cy="950.0" fill="black" r="19.6"/>
    <circle cx="416.6666666666667" cy="983.3333333333334" fill="black" r="20.0"/>
    <circle cx="450.00000000000006" cy="16.666666666666668" fill="black" r="8.4"/>
    <circle cx="450.00000000000006" cy="50.0" fill="black" r="8.8"/>
    <circle cx="450.00000000000006" cy="83.33333333333334" fill="black" r="9.2"/>
    <circle cx="450.00000000000006" cy="116.66666666666667" fill="black" r="9.6"/>
    <circle cx="450.00000000000006" cy="150.0" fill="black" r="10.0"/>
    <circle cx="450.00000000000006" cy="183.33333333333334" fill="black" r="10.4"/>
    <circle cx="450.00000000000006" cy="216.66666666666666" fill="black" r="10.8"/>
    <circle cx="450.00000000000006" cy="250.0" fill="black" r="11.2"/>
    <circle cx="450.00000000000006" cy="283.33333333333337" fill="black" r="11.6"/>
    <circle cx="450.00000000000006" cy="316.6666666666667" fill="black" r="12.0"/>
    <circle cx="450.00000000000006" cy="350.00000000000006" fill="black" r="12.4"/>
    <circle cx="450.00000000000006" cy="383.33333333333337" fill="black" r="12.8"/>
    <circle cx="450.00000000000006" cy="416.6666666666667" fill="black" r="13.2"/>
    <circle cx="450.00000000000006" cy="450.00000000000006" fill="black" r="13.6"/>
    <circle cx="450.00000000000006" cy="483.33333333333337" fill="black" r="14.0"/>
    <circle cx="450.00000000000006" cy="516.6666666666667" fill="black" r="14.4"/>
    <circle cx="450.00000000000006" cy="550.0" fill="black" r="14.8"/>
    <circle cx="450.00000000000006" cy="583.3333333333334" fill="black" r="15.2"/>
    <circle cx="450.00000000000006" cy="616.6666666666666" fill="black" r="15.6"/>
    <circle cx="450.00000000000006" cy="650.0" fill="black" r="16.0"/>
    <circle cx="450.00000000000006" cy="683.3333333333334" fill="black" r="16.4"/>
    <circle cx="450.00000000000006" cy="716.6666666666666" fill="black" r="16.8"/>
    <circle cx="450.00000000000006" cy="750.0" fill="black" r="17.2"/>
    <circle cx="450.00000000000006" cy="783.3333333333334" fill="black" r="17.6"/>
    <circle cx="450.00000000000006" cy="816.6666666666666" fill="black" r="18.0"/>
    <circle cx="450.00000000000006" cy="850.0" fill="black" r="18.4"/>
    <circle cx="450.00000000000006" cy="883.3333333333334" fill="black" r="18.8"/>
    <circle cx="450.00000000000006" cy="916.6666666666667" fill="black" r="19.2"/>
    <circle cx="450.00000000000006" cy="950.0" fill="black" r="19.6"/>
    <circle cx="450.00000000000006" cy="983.3333333333334" fill="black" r="20.0"/>
    <circle cx="483.33333333333337" cy="16.666666666666668" fill="black" r="8.4"/>
    <circle cx="483.33333333333337" cy="50.0" fill="black" r="8.8"/>
    <circle cx="483.33333333333337" cy="83.33333333333334" fill="black" r="9.2"/>
    <circle cx="483.33333333333337" cy="116.66666666666667" fill="black" r="9.6"/>
    <circle cx="483.33333333333337" cy="150.0" fill="black" r="10.0"/>
    <circle cx="483.33333333333337" cy="183.33333333333334" fill="black" r="10.4"/>
    <circle cx="483.33333333333337" cy="216.66666666666666" fill="black" r="10.8"/>
    <circle cx="483.33333333333337" cy="250.0" fill="black" r="11.2"/>
    <circle cx="483.33333333333337" cy="283.33333333333337" fill="black" r="11.6"/>
    <circle cx="483.33333333333337" cy="316.6666666666667" fill="black" r="12.0"/>
    <circle cx="483.33333333333337" cy="350.00000000000006" fill="black" r="12.4"/>
    <circle cx="483.33333333333337" cy="383.33333333333337" fill="black" r="12.8"/>
    <circle cx="483.33333333333337" cy="416.6666666666667" fill="black" r="13.2"/>
    <circle cx="483.33333333333337" cy="450.00000000000006" fill="black" r="13.6"/>
    <circle cx="483.33333333333337" cy="483.33333333333337" fill="black" r="14.0"/>
    <circle cx="483.33333333333337" cy="516.6666666666667" fill="black" r="14.4"/>
    <circle cx="483.33333333333337" cy="550.0" fill="black" r="14.8"/>
    <circle cx="483.33333333333337" cy="583.3333333333334" fill="black" r="15.2"/>
    <circle cx="483.33333333333337" cy="616.6666666666666" fill="black" r="15.6"/>
    <circle cx="483.33333333333337" cy="650.0" fill="black" r="16.0"/>
    <circle cx="483.33333333333337" cy="683.3333333333334" fill="black" r="16.4"/>
    <circle cx="483.33333333333337" cy="716.6666666666666" fill="black" r="16.8"/>
    <circle cx="483.33333333333337" cy="750.0" fill="black" r="17.2"/>
    <circle cx="483.33333333333337" cy="783.3333333333334" fill="black" r="17.6"/>
    <circle cx="483.33333333333337" cy="816.6666666666666" fill="black" r="18.0"/>
    <circle cx="483.33333333333337" cy="850.0" fill="black" r="18.4"/>
    <circle cx="483.33333333333337" cy="883.3333333333334" fill="black" r="18.8"/>
    <circle cx="483.33333333333337" cy="916.6666666666667" fill="black" r="19.2"/>
    <circle cx="483.33333333333337" cy="950.0" fill="black" r="19.6"/>
    <circle cx="483.33333333333337" cy="983.3333333333334" fill="black" r="20.0"/>
    <circle cx="516.6666666666667" cy="16.666666666666668" fill="black" r="8.4"/>
    <circle cx="516.6666666666667" cy="50.0" fill="black" r="8.8"/>
    <circle cx="516.6666666666667" cy="83.33333333333334" fill="black" r="9.2"/>
    <circle cx="516.6666666666667" cy="116.66666666666667" fill="black" r="9.6"/>
    <circle cx="516.6666666666667" cy="150.0" fill="black" r="10.0"/>
    <circle cx="516.6666666666667" cy="183.33333333333334" fill="black" r="10.4"/>
    <circle cx="516.6666666666667" cy="216.66666666666666" fill="black" r="10.8"/>
    <circle cx="516.6666666666667" cy="250.0" fill="black" r="11.2"/>
    <circle cx="516.6666666666667" cy="283.33333333333337" fill="black" r="11.6"/>
    <circle cx="516.6666666666667" cy="316.6666666666667" fill="black" r="12.0"/>
    <circle cx="516.6666666666667" cy="350.00000000000006" fill="black" r="12.4"/>
    <circle cx="516.6666666666667" cy="383.33333333333337" fill="black" r="12.8"/>
    <circle cx="516.6666666666667" cy="416.6666666666667" fill="black" r="13.2"/>
    <circle cx="516.6666666666667" cy="450.00000000000006" fill="black" r="13.6"/>
    <circle cx="516.6666666666667" cy="483.33333333333337" fill="black" r="14.0"/>
    <circle cx="516.6666666666667" cy="516.6666666666667" fill="black" r="14.4"/>
    <circle cx="516.6666666666667" cy="550.0" fill="black" r="14.8"/>
    <circle cx="516.6666666666667" cy="583.3333333333334" fill="black" r="15.2"/>
    <circle cx="516.6666666666667" cy="616.6666666666666" fill="black" r="15.6"/>
    <circle cx="516.6666666666667" cy="650.0" fill="black" r="16.0"/>
    <circle cx="516.6666666666667" cy="683.3333333333334" fill="black" r="16.4"/>
    <circle cx="516.6666666666667" cy="716.6666666666666" fill="black" r="16.8"/>
    <circle cx="516.6666666666667" cy="750.0" fill="black" r="17.2"/>
    <circle cx="516.6666666666667" cy="783.3333333333334" fill="black" r="17.6"/>
    <circle cx="516.6666666666667" cy="816.6666666666666" fill="black" r="18.0"/>
    <circle cx="516.6666666666667" cy="850.0" fill="black" r="18.4"/>
    <circle cx="516.6666666666667" cy="883.3333333333334" fill="black" r="18.8"/>
    <circle cx="516.6666666666667" cy="916.6666666666667" fill="black" r="19.2"/>
    <circle cx="516.6666666666667" cy="950.0" fill="black" r="19.6"/>
    <circle cx="516.6666666666667" cy="983.3333333333334" fill="black" r="20.0"/>
    <circle cx="550.0" cy="16.666666666666668" fill="black" r="8.4"/>
    <circle cx="550.0" cy="50.0" fill="black" r="8.8"/>
    <circle cx="550.0" cy="83.33333333333334" fill="black" r="9.2"/>
    <circle cx="550.0" cy="116.66666666666667" fill="black" r="9.6"/>
    <circle cx="550.0" cy="150.0" fill="black" r="10.0"/>
    <circle cx="550.0" cy="183.33333333333334" fill="black" r="10.4"/>
    <circle cx="550.0" cy="216.66666666666666" fill="black" r="10.8"/>
    <circle cx="550.0" cy="250.0" fill="black" r="11.2"/>
    <circle cx="550.0" cy="283.33333333333337" fill="black" r="11.6"/>
    <circle cx="550.0" cy="316.6666666666667" fill="black" r="12.0"/>
    <circle cx="550.0" cy="350.00000000000006" fill="black" r="12.4"/>
    <circle cx="550.0" cy="383.33333333333337" fill="black" r="12.8"/>
    <circle cx="550.0" cy="416.6666666666667" fill="black" r="13.2"/>
    <circle cx="550.0" cy="450.00000000000006" fill="black" r="13.6"/>
    <circle cx="550.0" cy="483.33333333333337" fill="black" r="14.0"/>
    <circle cx="550.0" cy="516.6666666666667" fill="black" r="14.4"/>
    <circle cx="550.0" cy="550.0" fill="black" r="14.8"/>
    <circle cx="550.0" cy="583.3333333333334" fill="black" r="15.2"/>
    <circle cx="550.0" cy="616.6666666666666" fill="black" r="15.6"/>
    <circle cx="550.0" cy="650.0" fill="black" r="16.0"/>
    <circle cx="550.0" cy="683.3333333333334" fill="black" r="16.4"/>
    <circle cx="550.0" cy="716.6666666666666" fill="black" r="16.8"/>
    <circle cx="550.0" cy="750.0" fill="black" r="17.2"/>
    <circle cx="550.0" cy="783.3333333333334" fill="black" r="17.6"/>
    <circle cx="550.0" cy="816.6666666666666" fill="black" r="18.0"/>
    <circle cx="550.0" cy="850.0" fill="black" r="18.4"/>
    <circle cx="550.0" cy="883.3333333333334" fill="black" r="18.8"/>
    <circle cx="550.0" cy="916.6666666666667" fill="black" r="19.2"/>
    <circle cx="550.0" cy="950.0" fill="black" r="19.6"/>
    <circle cx="550.0" cy="983.3333333333334" fill="black" r="20.0"/>
    <circle cx="583.3333333333334" cy="16.666666666666668" fill="black" r="8.4"/>
    <circle cx="583.3333333333334" cy="50.0" fill="black" r="8.8"/>
    <circle cx="583.3333333333334" cy="83.33333333333334" fill="black" r="9.2"/>
    <circle cx="583.3333333333334" cy="116.66666666666667" fill="black" r="9.6"/>
    <circle cx="583.3333333333334" cy="150.0" fill="black" r="10.0"/>
    <circle cx="583.3333333333334" cy="183.33333333333334" fill="black" r="10.4"/>
    <circle cx="583.3333333333334" cy="216.66666666666666" fill="black" r="10.8"/>
    <circle cx="583.3333333333334" cy="250.0" fill="black" r="11.2"/>
    <circle cx="583.3333333333334" cy="283.33333333333337" fill="black" r="11.6"/>
    <circle cx="583.3333333333334" cy="316.6666666666667" fill="black" r="12.0"/>
    <circle cx="583.3333333333334" cy="350.00000000000006" fill="black" r="12.4"/>
    <circle cx="583.3333333333334" cy="383.33333333333337" fill="black" r="12.8"/>
    <circle cx="583.3333333333334" cy="416.6666666666667" fill="black" r="13.2"/>
    <circle cx="583.3333333333334" cy="450.00000000000006" fill="black" r="13.6"/>
    <circle cx="583.3333333333334" cy="483.33333333333337" fill="black" r="14.0"/>
    <circle cx="583.3333333333334" cy="516.6666666666667" fill="black" r="14.4"/>
    <circle cx="583.3333333333334" cy="550.0" fill="black" r="14.8"/>
    <circle cx="583.3333333333334" cy="583.3333333333334" fill="black" r="15.2"/>
    <circle cx="583.3333333333334" cy="616.6666666666666" fill="black" r="15.6"/>
    <circle cx="583.3333333333334" cy="650.0" fill="black" r="16.0"/>
    <circle cx="583.3333333333334" cy="683.3333333333334" fill="black" r="16.4"/>
    <circle cx="583.3333333333334" cy="716.6666666666666" fill="black" r="16.8"/>
    <circle cx="583.3333333333334" cy="750.0" fill="black" r="17.2"/>
    <circle cx="583.3333333333334" cy="783.3333333333334" fill="black" r="17.6"/>
    <circle cx="583.3333333333334" cy="816.6666666666666" fill="black" r="18.0"/>
    <circle cx="583.3333333333334" cy="850.0" fill="black" r="18.4"/>
    <circle cx="583.3333333333334" cy="883.3333333333334" fill="black" r="18.8"/>
    <circle cx="583.3333333333334" cy="916.6666666666667" fill="black" r="19.2"/>
    <circle cx="583.3333333333334" cy="950.0" fill="black" r="19.6"/>
    <circle cx="583.3333333333334" cy="983.3333333333334" fill="black" r="20.0"/>
    <circle cx="616.6666666666666" cy="16.666666666666668" fill="black" r="8.4"/>
    <circle cx="616.6666666666666" cy="50.0" fill="black" r="8.8"/>
    <circle cx="616.6666666666666" cy="83.33333333333334" fill="black" r="9.2"/>
    <circle cx="616.6666666666666" cy="116.66666666666667" fill="black" r="9.6"/>
    <circle cx="616.6666666666666" cy="150.0" fill="black" r="10.0"/>
    <circle cx="616.6666666666666" cy="183.33333333333334" fill="black" r="10.4"/>
    <circle cx="616.6666666666666" cy="216.66666666666666" fill="black" r="10.8"/>
    <circle cx="616.6666666666666" cy="250.0" fill="black" r="11.2"/>
    <circle cx="616.6666666666666" cy="283.33333333333337" fill="black" r="11.6"/>
    <circle cx="616.6666666666666" cy="316.6666666666667" fill="black" r="12.0"/>
    <circle cx="616.6666666666666" cy="350.00000000000006" fill="black" r="12.4"/>
    <circle cx="616.6666666666666" cy="383.33333333333337" fill="black" r="12.8"/>
    <circle cx="616.6666666666666" cy="416.6666666666667" fill="black" r="13.2"/>
    <circle cx="616.6666666666666" cy="450.00000000000006" fill="black" r="13.6"/>
    <circle cx="616.6666666666666" cy="483.33333333333337" fill="black" r="14.0"/>
    <circle cx="616.6666666666666" cy="516.6666666666667" fill="black" r="14.4"/>
    <circle cx="616.6666666666666" cy="550.0" fill="black" r="14.8"/>
    <circle cx="616.6666666666666" cy="583.3333333333334" fill="black" r="15.2"/>
    <circle cx="616.6666666666666" cy="616.6666666666666" fill="black" r="15.6"/>
    <circle cx="616.6666666666666" cy="650.0" fill="black" r="16.0"/>
    <circle cx="616.6666666666666" cy="683.3333333333334" fill="black" r="16.4"/>
    <circle cx="616.6666666666666" cy="716.6666666666666" fill="black" r="16.8"/>
    <circle cx="616.6666666666666" cy="750.0" fill="black" r="17.2"/>
    <circle cx="616.6666666666666" cy="783.3333333333334" fill="black" r="17.6"/>
    <circle cx="616.6666666666666" cy="816.6666666666666" fill="black" r="18.0"/>
    <circle cx="616.6666666666666" cy="850.0" fill="black" r="18.4"/>
    <circle cx="616.6666666666666" cy="883.3333333333334" fill="black" r="18.8"/>
    <circle cx="616.6666666666666" cy="916.6666666666667" fill="black" r="19.2"/>
    <circle cx="616.6666666666666" cy="950.0" fill="black" r="19.6"/>
    <circle cx="616.6666666666666" cy="983.3333333333334" fill="black" r="20.0"/>
    <circle cx="650.0" cy="16.666666666666668" fill="black" r="8.4"/>
    <circle cx="650.0" cy="50.0" fill="black" r="8.8"/>
    <circle cx="650.0" cy="83.33333333333334" fill="black" r="9.2"/>
    <circle cx="650.0" cy="116.66666666666667" fill="black" r="9.6"/>
    <circle cx="650.0" cy="150.0" fill="black" r="10.0"/>
    <circle cx="650.0" cy="183.33333333333334" fill="black" r="10.4"/>
    <circle cx="650.0" cy="216.66666666666666" fill="black" r="10.8"/>
    <circle cx="650.0" cy="250.0" fill="black" r="11.2"/>
    <circle cx="650.0" cy="283.33333333333337" fill="black" r="11.6"/>
    <circle cx="650.0" cy="316.6666666666667" fill="black" r="12.0"/>
    <circle cx="650.0" cy="350.00000000000006" fill="black" r="12.4"/>
    <circle cx="650.0" cy="383.33333333333337" fill="black" r="12.8"/>
    <circle cx="650.0" cy="416.6666666666667" fill="black" r="13.2"/>
    <circle cx="650.0" cy="450.00000000000006" fill="black" r="13.6"/>
    <circle cx="650.0" cy="483.33333333333337" fill="black" r="14.0"/>
    <circle cx="650.0" cy="516.6666666666667" fill="black" r="14.4"/>
    <circle cx="650.0" cy="550.0" fill="black" r="14.8"/>
    <circle cx="650.0" cy="583.3333333333334" fill="black" r="15.2"/>
    <circle cx="650.0" cy="616.6666666666666" fill="black" r="15.6"/>
    <circle cx="650.0" cy="650.0" fill="black" r="16.0"/>
    <circle cx="650.0" cy="683.3333333333334" fill="black" r="16.4"/>
    <circle cx="650.0" cy="716.6666666666666" fill="black" r="16.8"/>
    <circle cx="650.0" cy="750.0" fill="black" r="17.2"/>
    <circle cx="650.0" cy="783.3333333333334" fill="black" r="17.6"/>
    <circle cx="650.0" cy="816.6666666666666" fill="black" r="18.0"/>
    <circle cx="650.0" cy="850.0" fill="black" r="18.4"/>
    <circle cx="650.0" cy="883.3333333333334" fill="black" r="18.8"/>
    <circle cx="650.0" cy="916.6666666666667" fill="black" r="19.2"/>
    <circle cx="650.0" cy="950.0" fill="black" r="19.6"/>
    <circle cx="650.0" cy="983.3333333333334" fill="black" r="20.0"/>
    <circle cx="683.3333333333334" cy="16.666666666666668" fill="black" r="8.4"/>
    <circle cx="683.3333333333334" cy="50.0" fill="black" r="8.8"/>
    <circle cx="683.3333333333334" cy="83.33333333333334" fill="black" r="9.2"/>
    <circle cx="683.3333333333334" cy="116.66666666666667" fill="black" r="9.6"/>
    <circle cx="683.3333333333334" cy="150.0" fill="black" r="10.0"/>
    <circle cx="683.3333333333334" cy="183.33333333333334" fill="black" r="10.4"/>
    <circle cx="683.3333333333334" cy="216.66666666666666" fill="black" r="10.8"/>
    <circle cx="683.3333333333334" cy="250.0" fill="black" r="11.2"/>
    <circle cx="683.3333333333334" cy="283.33333333333337" fill="black" r="11.6"/>
    <circle cx="683.3333333333334" cy="316.6666666666667" fill="black" r="12.0"/>
    <circle cx="683.3333333333334" cy="350.00000000000006" fill="black" r="12.4"/>
    <circle cx="683.3333333333334" cy="383.33333333333337" fill="black" r="12.8"/>
    <circle cx="683.3333333333334" cy="416.6666666666667" fill="black" r="13.2"/>
    <circle cx="683.3333333333334" cy="450.00000000000006" fill="black" r="13.6"/>
    <circle cx="683.3333333333334" cy="483.33333333333337" fill="black" r="14.0"/>
    <circle cx="683.3333333333334" cy="516.6666666666667" fill="black" r="14.4"/>
    <circle cx="683.3333333333334" cy="550.0" fill="black" r="14.8"/>
    <circle cx="683.3333333333334" cy="583.3333333333334" fill="black" r="15.2"/>
    <circle cx="683.3333333333334" cy="616.6666666666666" fill="black" r="15.6"/>
    <circle cx="683.3333333333334" cy="650.0" fill="black" r="16.0"/>
    <circle cx="683.3333333333334" cy="683.3333333333334" fill="black" r="16.4"/>
    <circle cx="683.3333333333334" cy="716.6666666666666" fill="black" r="16.8"/>
    <circle cx="683.3333333333334" cy="750.0" fill="black" r="17.2"/>
    <circle cx="683.3333333333334" cy="783.3333333333334" fill="black" r="17.6"/>
    <circle cx="683.3333333333334" cy="816.6666666666666" fill="black" r="18.0"/>
    <circle cx="683.3333333333334" cy="850.0" fill="black" r="18.4"/>
    <circle cx="683.3333333333334" cy="883.3333333333334" fill="black" r="18.8"/>
    <circle cx="683.3333333333334" cy="916.6666666666667" fill="black" r="19.2"/>
    <circle cx="683.3333333333334" cy="950.0" fill="black" r="19.6"/>
    <circle cx="683.3333333333334" cy="983.3333333333334" fill="black" r="20.0"/>
    <circle cx="716.6666666666666" cy="16.666666666666668" fill="black" r="8.4"/>
    <circle cx="716.6666666666666" cy="50.0" fill="black" r="8.8"/>
    <circle cx="716.6666666666666" cy="83.33333333333334" fill="black" r="9.2"/>
    <circle cx="716.6666666666666" cy="116.66666666666667" fill="black" r="9.6"/>
    <circle cx="716.6666666666666" cy="150.0" fill="black" r="10.0"/>
    <circle cx="716.6666666666666" cy="183.33333333333334" fill="black" r="10.4"/>
    <circle cx="716.6666666666666" cy="216.66666666666666" fill="black" r="10.8"/>
    <circle cx="716.6666666666666" cy="250.0" fill="black" r="11.2"/>
    <circle cx="716.6666666666666" cy="283.33333333333337" fill="black" r="11.6"/>
    <circle cx="716.6666666666666" cy="316.6666666666667" fill="black" r="12.0"/>
    <circle cx="716.6666666666666" cy="350.00000000000006" fill="black" r="12.4"/>
    <circle cx="716.6666666666666" cy="383.33333333333337" fill="black" r="12.8"/>
    <circle cx="716.6666666666666" cy="416.6666666666667" fill="black" r="13.2"/>
    <circle cx="716.6666666666666" cy="450.00000000000006" fill="black" r="13.6"/>
    <circle cx="716.6666666666666" cy="483.33333333333337" fill="black" r="14.0"/>
    <circle cx="716.6666666666666" cy="516.6666666666667" fill="black" r="14.4"/>
    <circle cx="716.6666666666666" cy="550.0" fill="black" r="14.8"/>
    <circle cx="716.6666666666666" cy="583.3333333333334" fill="black" r="15.2"/>
    <circle cx="716.6666666666666" cy="616.6666666666666" fill="black" r="15.6"/>
    <circle cx="716.6666666666666" cy="650.0" fill="black" r="16.0"/>
    <circle cx="716.6666666666666" cy="683.3333333333334" fill="black" r="16.4"/>
    <circle cx="716.6666666666666" cy="716.6666666666666" fill="black" r="16.8"/>
    <circle cx="716.6666666666666" cy="750.0" fill="black" r="17.2"/>
    <circle cx="716.6666666666666" cy="783.3333333333334" fill="black" r="17.6"/>
    <circle cx="716.6666666666666" cy="816.6666666666666" fill="black" r="18.0"/>
    <circle cx="716.6666666666666" cy="850.0" fill="black" r="18.4"/>
    <circle cx="716.6666666666666" cy="883.3333333333334" fill="black" r="18.8"/>
    <circle cx="716.6666666666666" cy="916.6666666666667" fill="black" r="19.2"/>
    <circle cx="716.6666666666666" cy="950.0" fill="black" r="19.6"/>
    <circle cx="716.6666666666666" cy="983.3333333333334" fill="black" r="20.0"/>
    <circle cx="750.0" cy="16.666666666666668" fill="black" r="8.4"/>
    <circle cx="750.0" cy="50.0" fill="black" r="8.8"/>
    <circle cx="750.0" cy="83.33333333333334" fill="black" r="9.2"/>
    <circle cx="750.0" cy="116.66666666666667" fill="black" r="9.6"/>
    <circle cx="750.0" cy="150.0" fill="black" r="10.0"/>
    <circle cx="750.0" cy="183.33333333333334" fill="black" r="10.4"/>
    <circle cx="750.0" cy="216.66666666666666" fill="black" r="10.8"/>
    <circle cx="750.0" cy="250.0" fill="black" r="11.2"/>
    <circle cx="750.0" cy="283.33333333333337" fill="black" r="11.6"/>
    <circle cx="750.0" cy="316.6666666666667" fill="black" r="12.0"/>
    <circle cx="750.0" cy="350.00000000000006" fill="black" r="12.4"/>
    <circle cx="750.0" cy="383.33333333333337" fill="black" r="12.8"/>
    <circle cx="750.0" cy="416.6666666666667" fill="black" r="13.2"/>
    <circle cx="750.0" cy="450.00000000000006" fill="black" r="13.6"/>
    <circle cx="750.0" cy="483.33333333333337" fill="black" r="14.0"/>
    <circle cx="750.0" cy="516.6666666666667" fill="black" r="14.4"/>
    <circle cx="750.0" cy="550.0" fill="black" r="14.8"/>
    <circle cx="750.0" cy="583.3333333333334" fill="black" r="15.2"/>
    <circle cx="750.0" cy="616.6666666666666" fill="black" r="15.6"/>
    <circle cx="750.0" cy="650.0" fill="black" r="16.0"/>
    <circle cx="750.0" cy="683.3333333333334" fill="black" r="16.4"/>
    <circle cx="750.0" cy="716.6666666666666" fill="black" r="16.8"/>
    <circle cx="750.0" cy="750.0" fill="black" r="17.2"/>
    <circle cx="750.0" cy="783.3333333333334" fill="black" r="17.6"/>
    <circle cx="750.0" cy="816.6666666666666" fill="black" r="18.0"/>
    <circle cx="750.0" cy="850.0" fill="black" r="18.4"/>
    <circle cx="750.0" cy="883.3333333333334" fill="black" r="18.8"/>
    <circle cx="750.0" cy="916.6666666666667" fill="black" r="19.2"/>
    <circle cx="750.0" cy="950.0" fill="black" r="19.6"/>
    <circle cx="750.0" cy="983.3333333333334" fill="black" r="20.0"/>
    <circle cx="783.3333333333334" cy="16.666666666666668" fill="black" r="8.4"/>
    <circle cx="783.3333333333334" cy="50.0" fill="black" r="8.8"/>
    <circle cx="783.3333333333334" cy="83.33333333333334" fill="black" r="9.2"/>
    <circle cx="783.3333333333334" cy="116.66666666666667" fill="black" r="9.6"/>
    <circle cx="783.3333333333334" cy="150.0" fill="black" r="10.0"/>
    <circle cx="783.3333333333334" cy="183.33333333333334" fill="black" r="10.4"/>
    <circle cx="783.3333333333334" cy="216.66666666666666" fill="black" r="10.8"/>
    <circle cx="783.3333333333334" cy="250.0" fill="black" r="11.2"/>
    <circle cx="783.3333333333334" cy="283.33333333333337" fill="black" r="11.6"/>
    <circle cx="783.3333333333334" cy="316.6666666666667" fill="black" r="12.0"/>
    <circle cx="783.3333333333334" cy="350.00000000000006" fill="black" r="12.4"/>
    <circle cx="783.3333333333334" cy="383.33333333333337" fill="black" r="12.8"/>
    <circle cx="783.3333333333334" cy="416.6666666666667" fill="black" r="13.2"/>
    <circle cx="783.3333333333334" cy="450.00000000000006" fill="black" r="13.6"/>
    <circle cx="783.3333333333334" cy="483.33333333333337" fill="black" r="14.0"/>
    <circle cx="783.3333333333334" cy="516.6666666666667" fill="black" r="14.4"/>
    <circle cx="783.3333333333334" cy="550.0" fill="black" r="14.8"/>
    <circle cx="783.3333333333334" cy="583.3333333333334" fill="black" r="15.2"/>
    <circle cx="783.3333333333334" cy="616.6666666666666" fill="black" r="15.6"/>
    <circle cx="783.3333333333334" cy="650.0" fill="black" r="16.0"/>
    <circle cx="783.3333333333334" cy="683.3333333333334" fill="black" r="16.4"/>
    <circle cx="783.3333333333334" cy="716.6666666666666" fill="black" r="16.8"/>
    <circle cx="783.3333333333334" cy="750.0" fill="black" r="17.2"/>
    <circle cx="783.3333333333334" cy="783.3333333333334" fill="black" r="17.6"/>
    <circle cx="783.3333333333334" cy="816.6666666666666" fill="black" r="18.0"/>
    <circle cx="783.3333333333334" cy="850.0" fill="black" r="18.4"/>
    <circle cx="783.3333333333334" cy="883.3333333333334" fill="black" r="18.8"/>
    <circle cx="783.3333333333334" cy="916.6666666666667" fill="black" r="19.2"/>
    <circle cx="783.3333333333334" cy="950.0" fill="black" r="19.6"/>
    <circle cx="783.3333333333334" cy="983.3333333333334" fill="black" r="20.0"/>
    <circle cx="816.6666666666666" cy="16.666666666666668" fill="black" r="8.4"/>
    <circle cx="816.6666666666666" cy="50.0" fill="black" r="8.8"/>
    <circle cx="816.6666666666666" cy="83.33333333333334" fill="black" r="9.2"/>
    <circle cx="816.6666666666666" cy="116.66666666666667" fill="black" r="9.6"/>
    <circle cx="816.6666666666666" cy="150.0" fill="black" r="10.0"/>
    <circle cx="816.6666666666666" cy="183.33333333333334" fill="black" r="10.4"/>
    <circle cx="816.6666666666666" cy="216.66666666666666" fill="black" r="10.8"/>
    <circle cx="816.6666666666666" cy="250.0" fill="black" r="11.2"/>
    <circle cx="816.6666666666666" cy="283.33333333333337" fill="black" r="11.6"/>
    <circle cx="816.6666666666666" cy="316.6666666666667" fill="black" r="12.0"/>
    <circle cx="816.6666666666666" cy="350.00000000000006" fill="black" r="12.4"/>
    <circle cx="816.6666666666666" cy="383.33333333333337" fill="black" r="12.8"/>
    <circle cx="816.6666666666666" cy="416.6666666666667" fill="black" r="13.2"/>
    <circle cx="816.6666666666666" cy="450.00000000000006" fill="black" r="13.6"/>
    <circle cx="816.6666666666666" cy="483.33333333333337" fill="black" r="14.0"/>
    <circle cx="816.6666666666666" cy="516.6666666666667" fill="black" r="14.4"/>
    <circle cx="816.6666666666666" cy="550.0" fill="black" r="14.8"/>
    <circle cx="816.6666666666666" cy="583.3333333333334" fill="black" r="15.2"/>
    <circle cx="816.6666666666666" cy="616.6666666666666" fill="black" r="15.6"/>
    <circle cx="816.6666666666666" cy="650.0" fill="black" r="16.0"/>
    <circle cx="816.6666666666666" cy="683.3333333333334" fill="black" r="16.4"/>
    <circle cx="816.6666666666666" cy="716.6666666666666" fill="black" r="16.8"/>
    <circle cx="816.6666666666666" cy="750.0" fill="black" r="17.2"/>
    <circle cx="816.6666666666666" cy="783.3333333333334" fill="black" r="17.6"/>
    <circle cx="816.6666666666666" cy="816.6666666666666" fill="black" r="18.0"/>
    <circle cx="816.6666666666666" cy="850.0" fill="black" r="18.4"/>
    <circle cx="816.6666666666666" cy="883.3333333333334" fill="black" r="18.8"/>
    <circle cx="816.6666666666666" cy="916.6666666666667" fill="black" r="19.2"/>
    <circle cx="816.6666666666666" cy="950.0" fill="black" r="19.6"/>
    <circle cx="816.6666666666666" cy="983.3333333333334" fill="black" r="20.0"/>
    <circle cx="850.0" cy="16.666666666666668" fill="black" r="8.4"/>
    <circle cx="850.0" cy="50.0" fill="black" r="8.8"/>
    <circle cx="850.0" cy="83.33333333333334" fill="black" r="9.2"/>
    <circle cx="850.0" cy="116.66666666666667" fill="black" r="9.6"/>
    <circle cx="850.0" cy="150.0" fill="black" r="10.0"/>
    <circle cx="850.0" cy="183.33333333333334" fill="black" r="10.4"/>
    <circle cx="850.0" cy="216.66666666666666" fill="black" r="10.8"/>
    <circle cx="850.0" cy="250.0" fill="black" r="11.2"/>
    <circle cx="850.0" cy="283.33333333333337" fill="black" r="11.6"/>
    <circle cx="850.0" cy="316.6666666666667" fill="black" r="12.0"/>
    <circle cx="850.0" cy="350.00000000000006" fill="black" r="12.4"/>
    <circle cx="850.0" cy="383.33333333333337" fill="black" r="12.8"/>
    <circle cx="850.0" cy="416.6666666666667" fill="black" r="13.2"/>
    <circle cx="850.0" cy="450.00000000000006" fill="black" r="13.6"/>
    <circle cx="850.0" cy="483.33333333333337" fill="black" r="14.0"/>
    <circle cx="850.0" cy="516.6666666666667" fill="black" r="14.4"/>
    <circle cx="850.0" cy="550.0" fill="black" r="14.8"/>
    <circle cx="850.0" cy="583.3333333333334" fill="black" r="15.2"/>
    <circle cx="850.0" cy="616.6666666666666" fill="black" r="15.6"/>
    <circle cx="850.0" cy="650.0" fill="black" r="16.0"/>
    <circle cx="850.0" cy="683.3333333333334" fill="black" r="16.4"/>
    <circle cx="850.0" cy="716.6666666666666" fill="black" r="16.8"/>
    <circle cx="850.0" cy="750.0" fill="black" r="17.2"/>
    <circle cx="850.0" cy="783.3333333333334" fill="black" r="17.6"/>
    <circle cx="850.0" cy="816.6666666666666" fill="black" r="18.0"/>
    <circle cx="850.0" cy="850.0" fill="black" r="18.4"/>
    <circle cx="850.0" cy="883.3333333333334" fill="black" r="18.8"/>
    <circle cx="850.0" cy="916.6666666666667" fill="black" r="19.2"/>
    <circle cx="850.0" cy="950.0" fill="black" r="19.6"/>
    <circle cx="850.0" cy="983.3333333333334" fill="black" r="20.0"/>
    <circle cx="883.3333333333334" cy="16.666666666666668" fill="black" r="8.4"/>
    <circle cx="883.3333333333334" cy="50.0" fill="black" r="8.8"/>
    <circle cx="883.3333333333334" cy="83.33333333333334" fill="black" r="9.2"/>
    <circle cx="883.3333333333334" cy="116.66666666666667" fill="black" r="9.6"/>
    <circle cx="883.3333333333334" cy="150.0" fill="black" r="10.0"/>
    <circle cx="883.3333333333334" cy="183.33333333333334" fill="black" r="10.4"/>
    <circle cx="883.3333333333334" cy="216.66666666666666" fill="black" r="10.8"/>
    <circle cx="883.3333333333334" cy="250.0" fill="black" r="11.2"/>
    <circle cx="883.3333333333334" cy="283.33333333333337" fill="black" r="11.6"/>
    <circle cx="883.3333333333334" cy="316.6666666666667" fill="black" r="12.0"/>
    <circle cx="883.3333333333334" cy="350.00000000000006" fill="black" r="12.4"/>
    <circle cx="883.3333333333334" cy="383.33333333333337" fill="black" r="12.8"/>
    <circle cx="883.3333333333334" cy="416.6666666666667" fill="black" r="13.2"/>
    <circle cx="883.3333333333334" cy="450.00000000000006" fill="black" r="13.6"/>
    <circle cx="883.3333333333334" cy="483.33333333333337" fill="black" r="14.0"/>
    <circle cx="883.3333333333334" cy="516.6666666666667" fill="black" r="14.4"/>
    <circle cx="883.3333333333334" cy="550.0" fill="black" r="14.8"/>
    <circle cx="883.3333333333334" cy="583.3333333333334" fill="black" r="15.2"/>
    <circle cx="883.3333333333334" cy="616.6666666666666" fill="black" r="15.6"/>
    <circle cx="883.3333333333334" cy="650.0" fill="black" r="16.0"/>
    <circle cx="883.3333333333334" cy="683.3333333333334" fill="black" r="16.4"/>
    <circle cx="883.3333333333334" cy="716.6666666666666" fill="black" r="16.8"/>
    <circle cx="883.3333333333334" cy="750.0" fill="black" r="17.2"/>
    <circle cx="883.3333333333334" cy="783.3333333333334" fill="black" r="17.6"/>
    <circle cx="883.3333333333334" cy="816.6666666666666" fill="black" r="18.0"/>
    <circle cx="883.3333333333334" cy="850.0" fill="black" r="18.4"/>
    <circle cx="883.3333333333334" cy="883.3333333333334" fill="black" r="18.8"/>
    <circle cx="883.3333333333334" cy="916.6666666666667" fill="black" r="19.2"/>
    <circle cx="883.3333333333334" cy="950.0" fill="black" r="19.6"/>
    <circle cx="883.3333333333334" cy="983.3333333333334" fill="black" r="20.0"/>
    <circle cx="916.6666666666667" cy="16.666666666666668" fill="black" r="8.4"/>
    <circle cx="916.6666666666667" cy="50.0" fill="black" r="8.8"/>
    <circle cx="916.6666666666667" cy="83.33333333333334" fill="black" r="9.2"/>
    <circle cx="916.6666666666667" cy="116.66666666666667" fill="black" r="9.6"/>
    <circle cx="916.6666666666667" cy="150.0" fill="black" r="10.0"/>
    <circle cx="916.6666666666667" cy="183.33333333333334" fill="black" r="10.4"/>
    <circle cx="916.6666666666667" cy="216.66666666666666" fill="black" r="10.8"/>
    <circle cx="916.6666666666667" cy="250.0" fill="black" r="11.2"/>
    <circle cx="916.6666666666667" cy="283.33333333333337" fill="black" r="11.6"/>
    <circle cx="916.6666666666667" cy="316.6666666666667" fill="black" r="12.0"/>
    <circle cx="916.6666666666667" cy="350.00000000000006" fill="black" r="12.4"/>
    <circle cx="916.6666666666667" cy="383.33333333333337" fill="black" r="12.8"/>
    <circle cx="916.6666666666667" cy="416.6666666666667" fill="black" r="13.2"/>
    <circle cx="916.6666666666667" cy="450.00000000000006" fill="black" r="13.6"/>
    <circle cx="916.6666666666667" cy="483.33333333333337" fill="black" r="14.0"/>
    <circle cx="916.6666666666667" cy="516.6666666666667" fill="black" r="14.4"/>
    <circle cx="916.6666666666667" cy="550.0" fill="black" r="14.8"/>
    <circle cx="916.6666666666667" cy="583.3333333333334" fill="black" r="15.2"/>
    <circle cx="916.6666666666667" cy="616.6666666666666" fill="black" r="15.6"/>
    <circle cx="916.6666666666667" cy="650.0" fill="black" r="16.0"/>
    <circle cx="916.6666666666667" cy="683.3333333333334" fill="black" r="16.4"/>
    <circle cx="916.6666666666667" cy="716.6666666666666" fill="black" r="16.8"/>
    <circle cx="916.6666666666667" cy="750.0" fill="black" r="17.2"/>
    <circle cx="916.6666666666667" cy="783.3333333333334" fill="black" r="17.6"/>
    <circle cx="916.6666666666667" cy="816.6666666666666" fill="black" r="18.0"/>
    <circle cx="916.6666666666667" cy="850.0" fill="black" r="18.4"/>
    <circle cx="916.6666666666667" cy="883.3333333333334" fill="black" r="18.8"/>
    <circle cx="916.6666666666667" cy="916.6666666666667" fill="black" r="19.2"/>
    <circle cx="916.6666666666667" cy="950.0" fill="black" r="19.6"/>
    <circle cx="916.6666666666667" cy="983.3333333333334" fill="black" r="20.0"/>
    <circle cx="950.0" cy="16.666666666666668" fill="black" r="8.4"/>
    <circle cx="950.0" cy="50.0" fill="black" r="8.8"/>
    <circle cx="950.0" cy="83.33333333333334" fill="black" r="9.2"/>
    <circle cx="950.0" cy="116.66666666666667" fill="black" r="9.6"/>
    <circle cx="950.0" cy="150.0" fill="black" r="10.0"/>
    <circle cx="950.0" cy="183.33333333333334" fill="black" r="10.4"/>
    <circle cx="950.0" cy="216.66666666666666" fill="black" r="10.8"/>
    <circle cx="950.0" cy="250.0" fill="black" r="11.2"/>
    <circle cx="950.0" cy="283.33333333333337" fill="black" r="11.6"/>
    <circle cx="950.0" cy="316.6666666666667" fill="black" r="12.0"/>
    <circle cx="950.0" cy="350.00000000000006" fill="black" r="12.4"/>
    <circle cx="950.0" cy="383.33333333333337" fill="black" r="12.8"/>
    <circle cx="950.0" cy="416.6666666666667" fill="black" r="13.2"/>
    <circle cx="950.0" cy="450.00000000000006" fill="black" r="13.6"/>
    <circle cx="950.0" cy="483.33333333333337" fill="black" r="14.0"/>
    <circle cx="950.0" cy="516.6666666666667" fill="black" r="14.4"/>
    <circle cx="950.0" cy="550.0" fill="black" r="14.8"/>
    <circle cx="950.0" cy="583.3333333333334" fill="black" r="15.2"/>
    <circle cx="950.0" cy="616.6666666666666" fill="black" r="15.6"/>
    <circle cx="950.0" cy="650.0" fill="black" r="16.0"/>
    <circle cx="950.0" cy="683.3333333333334" fill="black" r="16.4"/>
    <circle cx="950.0" cy="716.6666666666666" fill="black" r="16.8"/>
    <circle cx="950.0" cy="750.0" fill="black" r="17.2"/>
    <circle cx="950.0" cy="783.3333333333334" fill="black" r="17.6"/>
    <circle cx="950.0" cy="816.6666666666666" fill="black" r="18.0"/>
    <circle cx="950.0" cy="850.0" fill="black" r="18.4"/>
    <circle cx="950.0" cy="883.3333333333334" fill="black" r="18.8"/>
    <circle cx="950.0" cy="916.6666666666667" fill="black" r="19.2"/>
    <circle cx="950.0" cy="950.0" fill="black" r="19.6"/>
    <circle cx="950.0" cy="983.3333333333334" fill="black" r="20.0"/>
    <circle cx="983.3333333333334" cy="16.666666666666668" fill="black" r="8.4"/>
    <circle cx="983.3333333333334" cy="50.0" fill="black" r="8.8"/>
    <circle cx="983.3333333333334" cy="83.33333333333334" fill="black" r="9.2"/>
    <circle cx="983.3333333333334" cy="116.66666666666667" fill="black" r="9.6"/>
    <circle cx="983.3333333333334" cy="150.0" fill="black" r="10.0"/>
    <circle cx="983.3333333333334" cy="183.33333333333334" fill="black" r="10.4"/>
    <circle cx="983.3333333333334" cy="216.66666666666666" fill="black" r="10.8"/>
    <circle cx="983.3333333333334" cy="250.0" fill="black" r="11.2"/>
    <circle cx="983.3333333333334" cy="283.33333333333337" fill="black" r="11.6"/>
    <circle cx="983.3333333333334" cy="316.6666666666667" fill="black" r="12.0"/>
    <circle cx="983.3333333333334" cy="350.00000000000006" fill="black" r="12.4"/>
    <circle cx="983.3333333333334" cy="383.33333333333337" fill="black" r="12.8"/>
    <circle cx="983.3333333333334" cy="416.6666666666667" fill="black" r="13.2"/>
    <circle cx="983.3333333333334" cy="450.00000000000006" fill="black" r="13.6"/>
    <circle cx="983.3333333333334" cy="483.33333333333337" fill="black" r="14.0"/>
    <circle cx="983.3333333333334" cy="516.6666666666667" fill="black" r="14.4"/>
    <circle cx="983.3333333333334" cy="550.0" fill="black" r="14.8"/>
    <circle cx="983.3333333333334" cy="583.3333333333334" fill="black" r="15.2"/>
    <circle cx="983.3333333333334" cy="616.6666666666666" fill="black" r="15.6"/>
    <circle cx="983.3333333333334" cy="650.0" fill="black" r="16.0"/>
    <circle cx="983.3333333333334" cy="683.3333333333334" fill="black" r="16.4"/>
    <circle cx="983.3333333333334" cy="716.6666666666666" fill="black" r="16.8"/>
    <circle cx="983.3333333333334" cy="750.0" fill="black" r="17.2"/>
    <circle cx="983.3333333333334" cy="783.3333333333334" fill="black" r="17.6"/>
    <circle cx="983.3333333333334" cy="816.6666666666666" fill="black" r="18.0"/>
    <circle cx="983.3333333333334" cy="850.0" fill="black" r="18.4"/>
    <circle cx="983.3333333333334" cy="883.3333333333334" fill="black" r="18.8"/>
    <circle cx="983.3333333333334" cy="916.6666666666667" fill="black" r="19.2"/>
    <circle cx="983.3333333333334" cy="950.0" fill="black" r="19.6"/>
    <circle cx="983.3333333333334" cy="983.3333333333334" fill="black" r="20.0"/>
  </g>
</svg>
