<?xml version="1.0" encoding="UTF-8" standalone="no"?>
<!-- Created with Inkscape (http://www.inkscape.org/) -->

<svg
   width="264.59244mm"
   height="264.60159mm"
   viewBox="0 0 264.59244 264.60159"
   version="1.1"
   id="svg1"
   xml:space="preserve"
   xmlns:inkscape="http://www.inkscape.org/namespaces/inkscape"
   xmlns:sodipodi="http://sodipodi.sourceforge.net/DTD/sodipodi-0.dtd"
   xmlns="http://www.w3.org/2000/svg"
   xmlns:svg="http://www.w3.org/2000/svg"><sodipodi:namedview
     id="namedview1"
     pagecolor="#ffffff"
     bordercolor="#000000"
     borderopacity="0.25"
     inkscape:showpageshadow="2"
     inkscape:pageopacity="0.0"
     inkscape:pagecheckerboard="0"
     inkscape:deskcolor="#d1d1d1"
     inkscape:document-units="mm" /><defs
     id="defs1" /><g
     inkscape:label="Layer 1"
     inkscape:groupmode="layer"
     id="layer1"
     transform="translate(-557.34327,-8.6483829)"><path
       style="fill:#000000"
       d="m 570.84616,273.12256 c 0,-0.065 24.75852,-27.62714 55.01894,-61.24907 46.74292,-51.93543 56.69947,-62.81899 55.14094,-60.27486 -0.11144,0.18191 -22.03791,27.62581 -48.72551,60.98647 l -48.5229,60.65573 h -6.45574 c -3.55065,0 -6.45573,-0.0532 -6.45573,-0.11827 z m 68.57235,-60.40517 c 23.29415,-33.28789 42.42868,-60.60778 42.52118,-60.71086 0.0925,-0.10308 0.33038,-0.0872 0.52862,0.0353 0.27499,0.16995 -8.24295,14.56156 -35.93283,60.71086 l -36.29327,60.4881 h -6.58835 -6.58835 z m 14.17362,0.33527 c 16.55405,-33.10849 30.15793,-60.19543 30.23084,-60.1932 1.03158,0.0315 0.74948,0.76908 -23.08668,60.35972 l -23.95565,59.88936 -6.64339,0.0707 -6.6434,0.0707 z m -3.46203,59.72515 c 1.31552,-4.91289 35.75674,-118.97739 35.94242,-119.03626 0.14535,-0.0461 0.41198,0.01 0.59251,0.12442 0.25014,0.15868 -2.50424,14.36988 -11.57552,59.72373 -6.54707,32.73352 -11.90377,59.54602 -11.90377,59.58331 0,0.0373 -2.96541,0.0678 -6.58981,0.0678 -6.14685,0 -6.58148,-0.0311 -6.46583,-0.46302 z m 26.40723,-0.66146 c 0.13454,-0.9771 11.78383,-117.43115 11.78383,-117.79904 0,-0.0764 0.29766,-0.13899 0.66146,-0.13899 h 0.66146 v 59.53125 59.53126 h -6.6308 -6.63079 z m 26.33293,0.92604 c -0.002,-0.10914 -2.67176,-26.86731 -5.93359,-59.4626 -3.26183,-32.59528 -5.90962,-59.28026 -5.88399,-59.29994 0.0256,-0.0197 0.29624,-0.11234 0.60135,-0.2059 0.53916,-0.16534 0.88697,1.49262 12.38443,59.03536 6.50633,32.56301 11.89042,59.41383 11.96465,59.6685 0.12599,0.43224 -0.30584,0.46302 -6.49745,0.46302 -3.64783,0 -6.63376,-0.0893 -6.6354,-0.19844 z m 25.83183,-1.98438 c -10.08027,-33.2622 -35.06439,-117.09204 -34.97038,-117.33702 0.071,-0.18503 0.28773,-0.33642 0.48163,-0.33642 0.22206,0 9.22413,22.1792 24.32357,59.92813 l 23.97105,59.92813 h -6.57218 -6.57218 z m -2.94227,-57.87737 c -16.51668,-33.0331 -30.03032,-60.16662 -30.03032,-60.29669 0,-1.62361 2.65721,2.67949 37.00046,59.91863 l 36.26271,60.43825 h -6.60126 -6.60126 z m 14.10206,-0.5301 c -23.32693,-33.32466 -42.39176,-60.67629 -42.36629,-60.78141 0.0255,-0.10512 0.15859,-0.22855 0.29584,-0.2743 0.21809,-0.0727 97.4214,121.16855 97.4214,121.51326 0,0.073 -2.91113,0.13274 -6.46918,0.13274 h -6.46918 z m 13.82485,-0.57258 c -30.27575,-33.63958 -55.04682,-61.26208 -55.04682,-61.38334 0,-0.12125 0.0894,-0.22046 0.19865,-0.22046 0.10926,0 27.82096,27.6225 61.58156,61.38333 l 61.38291,61.38334 h -6.53474 -6.53474 z m -196.33432,54.49541 v -6.53474 l 61.16286,-55.04682 c 33.63958,-30.27575 61.26208,-55.04682 61.38334,-55.04682 0.12126,0 0.22047,0.0894 0.22047,0.19865 0,0.10926 -27.6225,27.82096 -61.38334,61.58156 l -61.38333,61.38291 z m 203.216,-61.84523 c -51.93543,-46.74293 -62.81898,-56.69947 -60.27485,-55.14094 0.1819,0.11143 27.62581,22.03791 60.98646,48.7255 l 60.65573,48.5229 v 6.45574 c 0,3.55066 -0.0532,6.45574 -0.11827,6.45574 -0.0651,0 -27.62713,-24.75853 -61.24907,-55.01894 z m -203.216,35.32059 v -6.46918 l 60.59029,-42.41259 c 33.32465,-23.32693 60.67629,-42.39176 60.7814,-42.36629 0.10512,0.0255 0.22855,0.15859 0.2743,0.29584 0.0727,0.21808 -121.16854,97.4214 -121.51326,97.4214 -0.073,0 -0.13273,-2.91113 -0.13273,-6.46918 z M 761.61075,191.3257 c -33.10599,-23.19899 -60.40037,-42.32757 -60.65416,-42.50795 -0.30779,-0.21876 -0.38413,-0.44873 -0.22925,-0.69061 0.17923,-0.27992 14.03191,7.91726 60.72031,35.93062 l 60.4881,36.29326 v 6.60115 c 0,3.63064 -0.0298,6.59044 -0.0661,6.57734 -0.0364,-0.0131 -27.15286,-19.00481 -60.25885,-42.20381 z m -204.25834,22.37079 v -6.60127 l 60.06018,-30.03032 c 33.03311,-16.51668 60.16662,-30.03033 60.2967,-30.03033 1.6236,0 -2.6795,2.65722 -59.91864,37.00047 l -60.43824,36.26271 z m 204.32448,-36.73058 c -33.06961,-16.5347 -60.12474,-30.12274 -60.12251,-30.19565 0.0315,-1.03168 0.76505,-0.75133 60.22747,23.01938 32.86637,13.13867 59.84845,23.96856 59.96019,24.06644 0.11174,0.0979 0.17127,3.10182 0.13229,6.67543 l -0.0709,6.49749 z m -204.32448,10.27495 v -6.57218 l 2.18281,-0.66151 c 33.2622,-10.08028 117.09204,-35.06439 117.33702,-34.97038 0.18503,0.071 0.33642,0.28773 0.33642,0.48162 0,0.22206 -22.1792,9.22414 -59.92813,24.32358 l -59.92812,23.97105 z M 762.16194,162.6781 c -32.80283,-9.84094 -59.67926,-18.01165 -59.72539,-18.15714 -0.0461,-0.14548 0.01,-0.41222 0.12435,-0.59276 0.15867,-0.25014 14.36379,2.50303 59.69824,11.57043 32.71952,6.54427 59.53413,11.94277 59.58803,11.99667 0.0539,0.0539 0.0661,3.01792 0.0271,6.58671 l -0.0708,6.48871 z m -204.80953,-1.86736 c 0,-3.64783 0.0893,-6.63376 0.19843,-6.6354 0.10915,-0.002 26.86731,-2.67176 59.4626,-5.93359 32.59529,-3.26183 59.28026,-5.90963 59.29995,-5.88399 0.0197,0.0256 0.11234,0.29624 0.2059,0.60135 0.16533,0.53916 -1.49263,0.88697 -59.03536,12.38443 -32.56302,6.50633 -59.41384,11.89042 -59.6685,11.96465 -0.43225,0.12599 -0.46302,-0.30585 -0.46302,-6.49745 z M 762.4045,148.21185 c -32.23287,-3.24867 -58.81357,-5.91412 -59.06823,-5.92323 -0.31309,-0.0112 -0.46302,-0.23074 -0.46302,-0.67801 v -0.66145 h 59.53125 59.53125 v 6.61458 c 0,6.13461 -0.0336,6.61241 -0.46302,6.58468 -0.25466,-0.0164 -26.83537,-2.68791 -59.06823,-5.93657 z M 557.35241,134.31836 v -6.6308 l 1.12448,0.15484 c 0.9771,0.13455 117.43114,11.78384 117.79903,11.78384 0.0764,0 0.13899,0.29765 0.13899,0.66146 v 0.66146 h -59.53125 -59.53125 z m 145.43281,4.73527 c -0.0856,-0.3272 -0.13053,-0.61859 -0.0999,-0.64753 0.0306,-0.029 26.66612,-5.36905 59.19003,-11.8669 32.52391,-6.49785 59.34274,-11.87497 59.5974,-11.94915 0.43225,-0.12592 0.46302,0.30595 0.46302,6.49752 0,3.64783 -0.0625,6.63242 -0.13899,6.63242 -0.35698,0 -116.80798,11.64732 -117.76526,11.77877 -0.97016,0.13322 -1.1079,0.084 -1.24628,-0.44513 z m -86.00647,-12.67719 c -32.5816,-6.53122 -59.28349,-11.91915 -59.33752,-11.97318 -0.054,-0.054 -0.0664,-3.01812 -0.0274,-6.58687 l 0.0709,-6.48862 59.53125,17.85231 c 32.74219,9.81877 59.62445,17.93977 59.73836,18.04666 0.2811,0.26377 -0.0572,1.08296 -0.43385,1.05061 -0.16633,-0.0143 -26.9601,-5.36969 -59.54171,-11.90091 z m 85.40282,10.22374 c -0.0921,-0.23999 -0.12297,-0.47955 -0.0686,-0.53235 0.0543,-0.0528 27.03672,-10.87055 59.96081,-24.03944 l 59.86198,-23.943452 v 6.567837 6.567845 l -0.8599,0.27415 c -1.80695,0.57611 -117.31313,35.18922 -118.0017,35.36093 -0.54328,0.13548 -0.76713,0.0714 -0.89258,-0.25552 z m -85.03333,-24.62075 -59.66354,-23.893715 -0.0707,-6.643591 -0.0707,-6.64359 60.13111,30.061506 c 33.07212,16.53383 60.16368,30.09099 60.20349,30.12703 0.18146,0.16427 -0.29405,0.93235 -0.5637,0.91053 -0.16633,-0.0135 -27.15102,-10.77663 -59.96597,-23.91817 z m 84.05257,22.51543 c -0.1005,-0.2619 17.38676,-10.8858 60.29669,-36.631595 l 60.43825,-36.262708 v 6.601263 6.601262 l -60.06019,30.030328 c -33.0331,16.51668 -60.16661,30.03033 -60.29669,30.03033 -0.13008,0 -0.30021,-0.166 -0.37806,-0.36888 z M 617.74356,97.797502 557.35241,61.54721 v -6.58804 -6.58804 l 60.69934,42.489643 c 55.90399,39.132897 61.70638,43.292887 60.25308,43.198117 -0.0936,-0.006 -27.34614,-16.32372 -60.56127,-36.261388 z m 82.60261,35.192258 c -0.10064,-0.16284 0.0398,-0.50745 0.31215,-0.76582 0.78932,-0.74886 120.99691,-96.843544 121.14437,-96.843544 0.0732,0 0.13306,2.910917 0.13306,6.468703 v 6.468703 l -59.99427,41.988024 c -32.99685,23.093414 -60.31334,42.211224 -60.7033,42.484014 -0.49118,0.34359 -0.76525,0.40501 -0.89201,0.19992 z M 618.23969,83.772785 557.35241,35.063086 v -6.455928 c 0,-3.550761 0.0532,-6.455929 0.11827,-6.455929 0.29775,0 122.33203,110.030261 122.19086,110.171441 -0.0879,0.0879 -0.24414,0.15982 -0.3472,0.15982 -0.10305,0 -27.58665,-21.91937 -61.07465,-48.709705 z m 80.92939,47.981885 c 0,-0.10926 27.6225,-27.82096 61.38333,-61.581564 L 821.93575,8.7901984 v 6.5347386 6.534739 l -61.16287,55.046821 c -33.63957,30.275753 -61.26207,55.046823 -61.38333,55.046823 -0.12126,0 -0.22047,-0.0894 -0.22047,-0.19865 z M 618.86803,70.040814 557.48513,8.657479 h 6.53474 6.53473 l 55.04682,61.162866 c 30.27576,33.639585 55.04683,61.262085 55.04683,61.383345 0,0.12125 -0.0894,0.22047 -0.19866,0.22047 -0.10925,0 -27.82096,-27.62251 -61.58156,-61.383346 z m 79.37379,60.852196 c -0.0893,-0.14443 -0.0711,-0.41143 0.0403,-0.59333 0.11143,-0.18191 22.03791,-27.62581 48.72551,-60.98647 l 48.5229,-60.655731 h 6.45573 c 3.55066,0 6.45574,0.053223 6.45574,0.1182724 0,0.366667 -110.06568,122.3348886 -110.20018,122.1172586 z M 632.66126,69.654799 C 605.93899,36.252279 584.07532,8.8632144 584.07532,8.7902114 c 0,-0.073003 2.91114,-0.1327324 6.46919,-0.1327324 h 6.46918 l 42.36579,60.523439 c 23.30119,33.287902 42.36602,60.639532 42.36629,60.781412 2.7e-4,0.14188 -0.1118,0.2954 -0.24904,0.34115 -0.13725,0.0457 -22.11321,-27.24616 -48.83547,-60.648681 z m 64.15859,60.201641 c -0.27499,-0.16995 8.24294,-14.56156 35.93283,-60.710861 l 36.29327,-60.4881 h 6.58834 6.58835 l -42.35299,60.523439 c -23.29415,33.287902 -42.42869,60.607782 -42.52119,60.710862 -0.0925,0.10308 -0.33037,0.0872 -0.52861,-0.0353 z M 646.55819,69.095726 610.29549,8.657479 h 6.60126 6.60126 l 30.03033,60.060187 c 16.51668,33.033104 30.03032,60.166624 30.03032,60.296704 0,1.6236 -2.65721,-2.6795 -37.00047,-59.918644 z m 48.40623,59.705914 c -0.29421,-0.18631 4.44541,-12.26723 23.58745,-60.122515 l 23.95564,-59.8893546 6.6434,-0.070693 6.6434,-0.070694 -30.09828,60.1972576 c -16.55406,33.108499 -30.15794,60.195439 -30.23085,60.193209 -0.0729,-0.002 -0.29825,-0.10897 -0.50076,-0.23721 z M 660.75124,68.585606 636.7802,8.657479 h 6.57218 6.57217 l 0.66152,2.182812 c 10.08027,33.262202 35.06439,117.092049 34.97038,117.337029 -0.071,0.18503 -0.28774,0.33642 -0.48163,0.33642 -0.22206,0 -9.22413,-22.1792 -24.32358,-59.928134 z m 31.87188,59.446734 c -0.25014,-0.15868 2.50303,-14.36379 11.57043,-59.698254 6.54427,-32.719515 11.94277,-59.5341256 11.99667,-59.5880256 0.0539,-0.053899 3.01792,-0.066113 6.58671,-0.027144 l 6.48871,0.070854 -17.89262,59.6415176 c -9.84094,32.802842 -18.01165,59.679262 -18.15713,59.725392 -0.14549,0.0461 -0.41223,-0.01 -0.59277,-0.12434 z M 675.24969,68.788997 C 668.74336,36.225985 663.35927,9.3751614 663.28504,9.1204994 c -0.12599,-0.432247 0.30585,-0.4630204 6.49746,-0.4630204 3.64783,0 6.63376,0.089297 6.6354,0.1984374 0.002,0.109141 2.67176,26.8673086 5.93359,59.4625956 3.26183,32.595288 5.90962,59.280268 5.88399,59.299948 -0.0256,0.0197 -0.29624,0.11234 -0.60135,0.2059 -0.53917,0.16534 -0.88697,-1.49262 -12.38444,-59.035363 z m 14.39439,-0.600266 V 8.657479 h 6.63079 6.6308 l -0.15484,1.1244794 C 702.61629,10.759058 690.967,127.21311 690.967,127.581 c 0,0.0764 -0.29766,0.13899 -0.66146,0.13899 h -0.66146 z"
       id="path1"
       inkscape:export-filename="path1.svg"
       inkscape:export-xdpi="96"
       inkscape:export-ydpi="96" /></g></svg>
