<?xml version="1.0" encoding="utf-8" ?>
<svg xmlns="http://www.w3.org/2000/svg" xmlns:ev="http://www.w3.org/2001/xml-events" xmlns:xlink="http://www.w3.org/1999/xlink" baseProfile="full" fill="none" height="1000" version="1.1" viewBox="0 0 1000 1000" width="1000">
  <defs/>
  <g>
    <polygon fill="black" points="500.0,500.0 1000,0.0 1000,50.0"/>
    <polygon fill="black" points="500.0,500.0 1000,100.0 1000,150.0"/>
    <polygon fill="black" points="500.0,500.0 1000,200.0 1000,250.0"/>
    <polygon fill="black" points="500.0,500.0 1000,300.0 1000,350.0"/>
    <polygon fill="black" points="500.0,500.0 1000,400.0 1000,450.0"/>
    <polygon fill="black" points="500.0,500.0 1000,500.0 1000,550.0"/>
    <polygon fill="black" points="500.0,500.0 1000,600.0 1000,650.0"/>
    <polygon fill="black" points="500.0,500.0 1000,700.0 1000,750.0"/>
    <polygon fill="black" points="500.0,500.0 1000,800.0 1000,850.0"/>
    <polygon fill="black" points="500.0,500.0 1000,900.0 1000,950.0"/>
    <polygon fill="black" points="500.0,500.0 50.0,1000 100.0,1000"/>
    <polygon fill="black" points="500.0,500.0 150.0,1000 200.0,1000"/>
    <polygon fill="black" points="500.0,500.0 250.0,1000 300.0,1000"/>
    <polygon fill="black" points="500.0,500.0 350.0,1000 400.0,1000"/>
    <polygon fill="black" points="500.0,500.0 450.0,1000 500.0,1000"/>
    <polygon fill="black" points="500.0,500.0 550.0,1000 600.0,1000"/>
    <polygon fill="black" points="500.0,500.0 650.0,1000 700.0,1000"/>
    <polygon fill="black" points="500.0,500.0 750.0,1000 800.0,1000"/>
    <polygon fill="black" points="500.0,500.0 850.0,1000 900.0,1000"/>
    <polygon fill="black" points="500.0,500.0 950.0,1000 1000.0,1000"/>
    <polygon fill="black" points="500.0,500.0 0,50.0 0,100.0"/>
    <polygon fill="black" points="500.0,500.0 0,150.0 0,200.0"/>
    <polygon fill="black" points="500.0,500.0 0,250.0 0,300.0"/>
    <polygon fill="black" points="500.0,500.0 0,350.0 0,400.0"/>
    <polygon fill="black" points="500.0,500.0 0,450.0 0,500.0"/>
    <polygon fill="black" points="500.0,500.0 0,550.0 0,600.0"/>
    <polygon fill="black" points="500.0,500.0 0,650.0 0,700.0"/>
    <polygon fill="black" points="500.0,500.0 0,750.0 0,800.0"/>
    <polygon fill="black" points="500.0,500.0 0,850.0 0,900.0"/>
    <polygon fill="black" points="500.0,500.0 0,950.0 0,1000.0"/>
    <polygon fill="black" points="500.0,500.0 0.0,0 50.0,0"/>
    <polygon fill="black" points="500.0,500.0 100.0,0 150.0,0"/>
    <polygon fill="black" points="500.0,500.0 200.0,0 250.0,0"/>
    <polygon fill="black" points="500.0,500.0 300.0,0 350.0,0"/>
    <polygon fill="black" points="500.0,500.0 400.0,0 450.0,0"/>
    <polygon fill="black" points="500.0,500.0 500.0,0 550.0,0"/>
    <polygon fill="black" points="500.0,500.0 600.0,0 650.0,0"/>
    <polygon fill="black" points="500.0,500.0 700.0,0 750.0,0"/>
    <polygon fill="black" points="500.0,500.0 800.0,0 850.0,0"/>
    <polygon fill="black" points="500.0,500.0 900.0,0 950.0,0"/>
  </g>
</svg>
